<svg xmlns="http://www.w3.org/2000/svg" width="32" height="32" fill="none"><rect width="32" height="32" fill="#32D5BA" rx="16"/><path fill="#fff" fill-rule="evenodd" d="M8.754 9.87a1.207 1.207 0 0 0-1.208 1.207v6.035a1.207 1.207 0 0 0 1.208 1.207h5.431a.604.604 0 0 0 .604-.603v-7.243a.605.605 0 0 0-.604-.604H8.755Z" clip-rule="evenodd"/><path fill="#212121" fill-rule="evenodd" d="M14.159 9.02c-.45 0-.893.1-1.298.293l-.241.115a1.811 1.811 0 0 0-1.031 1.634v6.569c0 .31.078.614.23.885l2.508 4.478A1.961 1.961 0 0 0 18 22.036V19.19h3.963a2.414 2.414 0 0 0 2.385-2.789l-.755-4.832a3.018 3.018 0 0 0-2.982-2.55h-6.453Z" clip-rule="evenodd"/></svg>