<svg xmlns="http://www.w3.org/2000/svg" width="18" height="15" viewBox="0 0 18 15" fill="none">
  <path fill-rule="evenodd" clip-rule="evenodd" d="M1.7535 0.869354C1.43335 0.869353 1.12632 0.996532 0.899942 1.22291C0.673565 1.44929 0.546388 1.75632 0.546388 2.07646L0.546387 8.11201C0.546387 8.43216 0.673564 8.73919 0.899941 8.96557C1.12632 9.19195 1.43335 9.31912 1.7535 9.31912L7.18549 9.31912C7.26475 9.31912 7.34324 9.30351 7.41646 9.27318C7.48969 9.24285 7.55622 9.19839 7.61227 9.14235C7.66831 9.0863 7.71277 9.01977 7.7431 8.94654C7.77344 8.87331 7.78905 8.79483 7.78905 8.71557L7.78905 1.47291C7.78905 1.39365 7.77344 1.31517 7.74311 1.24194C7.71277 1.16871 7.66832 1.10218 7.61227 1.04613C7.55623 0.990087 7.48969 0.94563 7.41646 0.915298C7.34324 0.884966 7.26475 0.869355 7.18549 0.869355L1.7535 0.869354Z" fill="white"/>
  <path fill-rule="evenodd" clip-rule="evenodd" d="M7.15881 0.0195175C6.70983 0.0195441 6.26651 0.119756 5.86117 0.312846L5.61974 0.427521C5.31111 0.574799 5.05048 0.80647 4.86805 1.09572C4.68561 1.38497 4.58882 1.71997 4.58887 2.06195L4.58887 8.63104C4.58839 8.94074 4.66736 9.24538 4.81822 9.51585L7.3266 13.9942C7.53832 14.3736 7.87001 14.672 8.26963 14.8425C8.66924 15.013 9.11416 15.0461 9.53457 14.9364C9.95498 14.8267 10.3271 14.5806 10.5925 14.2366C10.8579 13.8926 11.0016 13.4703 11.001 13.0358L11.001 10.1906L14.964 10.1906C15.3127 10.1907 15.6573 10.1151 15.974 9.9693C16.2907 9.82345 16.5721 9.61071 16.7988 9.34573C17.0254 9.08075 17.192 8.76981 17.287 8.43431C17.3821 8.0988 17.4033 7.74669 17.3492 7.40221L16.5936 2.57014C16.4822 1.85939 16.1206 1.2118 15.5739 0.74413C15.0272 0.27646 14.3314 0.01948 13.612 0.0195189L7.15881 0.0195175Z" fill="#212121"/>
</svg>