<svg xmlns="http://www.w3.org/2000/svg" width="32" height="32" viewBox="0 0 32 32" fill="none">
  <rect width="32" height="32" rx="16" fill="white"/>
  <path fill-rule="evenodd" clip-rule="evenodd" d="M8.75398 22.3502C8.43384 22.3502 8.12681 22.223 7.90043 21.9966C7.67405 21.7702 7.54688 21.4632 7.54688 21.1431V15.1075C7.54688 14.7874 7.67405 14.4803 7.90043 14.2539C8.12681 14.0276 8.43384 13.9004 8.75398 13.9004H14.186C14.2652 13.9004 14.3437 13.916 14.417 13.9463C14.4902 13.9767 14.5567 14.0211 14.6128 14.0772C14.6688 14.1332 14.7133 14.1997 14.7436 14.273C14.7739 14.3462 14.7895 14.4247 14.7895 14.5039V21.7466C14.7895 21.8259 14.7739 21.9043 14.7436 21.9776C14.7133 22.0508 14.6688 22.1173 14.6128 22.1734C14.5567 22.2294 14.4902 22.2739 14.417 22.3042C14.3437 22.3345 14.2652 22.3502 14.186 22.3502H8.75398Z" fill="#E0EAFF"/>
  <path fill-rule="evenodd" clip-rule="evenodd" d="M14.1695 23.1991C13.7206 23.1991 13.2772 23.0989 12.8719 22.9058L12.6305 22.7911C12.3218 22.6439 12.0612 22.4122 11.8788 22.1229C11.6964 21.8337 11.5996 21.4987 11.5996 21.1567V14.5876C11.5991 14.2779 11.6781 13.9733 11.829 13.7028L14.3373 9.22443C14.5491 8.84503 14.8808 8.54666 15.2804 8.37614C15.68 8.20562 16.1249 8.1726 16.5453 8.28226C16.9657 8.39192 17.3378 8.63805 17.6032 8.98204C17.8687 9.32603 18.0123 9.7484 18.0118 10.1829V13.028H21.9747C22.3234 13.028 22.668 13.1035 22.9847 13.2494C23.3015 13.3952 23.5828 13.608 23.8095 13.8729C24.0362 14.1379 24.2028 14.4489 24.2978 14.7844C24.3928 15.1199 24.414 15.472 24.36 15.8165L23.6043 20.6485C23.493 21.3593 23.1313 22.0069 22.5846 22.4745C22.038 22.9422 21.3422 23.1992 20.6228 23.1991H14.1695Z" fill="#32D5BA"/>
</svg>