<svg xmlns="http://www.w3.org/2000/svg" width="32" height="32" fill="none"><rect width="32" height="32" fill="#475467" rx="16"/><path fill="#98A2B3" fill-rule="evenodd" d="M8.754 22.35a1.207 1.207 0 0 1-1.208-1.207v-6.036A1.207 1.207 0 0 1 8.754 13.9h5.431a.604.604 0 0 1 .604.604v7.243a.604.604 0 0 1-.604.603H8.755Z" clip-rule="evenodd"/><path fill="#D1E9FF" fill-rule="evenodd" d="M14.169 23.2c-.45 0-.893-.1-1.298-.293l-.242-.115a1.811 1.811 0 0 1-1.03-1.634v-6.57c0-.31.078-.614.229-.884l2.508-4.479a1.961 1.961 0 0 1 3.675.959v2.845h3.963a2.416 2.416 0 0 1 2.385 2.788l-.756 4.832a3.017 3.017 0 0 1-2.981 2.551h-6.453Z" clip-rule="evenodd"/></svg>