<svg xmlns="http://www.w3.org/2000/svg" width="18" height="16" viewBox="0 0 18 16" fill="none">
  <path fill-rule="evenodd" clip-rule="evenodd" d="M1.7535 14.3502C1.43335 14.3502 1.12632 14.223 0.899941 13.9966C0.673564 13.7702 0.546387 13.4632 0.546387 13.1431V7.1075C0.546387 6.78736 0.673564 6.48032 0.899941 6.25395C1.12632 6.02757 1.43335 5.90039 1.7535 5.90039H7.18549C7.26475 5.90039 7.34324 5.916 7.41646 5.94633C7.48969 5.97666 7.55622 6.02112 7.61227 6.07717C7.66831 6.13321 7.71277 6.19975 7.7431 6.27297C7.77344 6.3462 7.78905 6.42469 7.78905 6.50395V13.7466C7.78905 13.8259 7.77344 13.9043 7.7431 13.9776C7.71277 14.0508 7.66831 14.1173 7.61227 14.1734C7.55622 14.2294 7.48969 14.2739 7.41646 14.3042C7.34324 14.3345 7.26475 14.3502 7.18549 14.3502H1.7535Z" fill="white"/>
  <path fill-rule="evenodd" clip-rule="evenodd" d="M7.16857 15.2C6.71959 15.2 6.27627 15.0998 5.87093 14.9067L5.62951 14.792C5.32087 14.6447 5.06025 14.413 4.87781 14.1238C4.69538 13.8345 4.59858 13.4995 4.59863 13.1576V6.58847C4.59816 6.27878 4.67712 5.97413 4.82799 5.70366L7.33636 1.22528C7.54808 0.845885 7.87978 0.547515 8.27939 0.376994C8.67901 0.206474 9.12393 0.173452 9.54434 0.283113C9.96475 0.392773 10.3369 0.638908 10.6023 0.982895C10.8677 1.32688 11.0114 1.74925 11.0108 2.18373V5.02889H14.9737C15.3224 5.02886 15.667 5.10437 15.9838 5.25022C16.3005 5.39607 16.5819 5.6088 16.8085 5.87379C17.0352 6.13877 17.2018 6.44971 17.2968 6.78521C17.3918 7.12072 17.413 7.47282 17.359 7.81731L16.6033 12.6494C16.492 13.3601 16.1304 14.0077 15.5837 14.4754C15.037 14.9431 14.3412 15.2 13.6218 15.2H7.16857Z" fill="#32D5BA"/>
</svg>