<svg xmlns="http://www.w3.org/2000/svg" width="24" height="24" fill="none"><g clip-path="url(#a)"><path fill="#E4E7EC" d="M8.571 2.571a.857.857 0 0 0-.685.343L5.57 6h-3A2.571 2.571 0 0 0 0 8.571v10.286a2.571 2.571 0 0 0 2.571 2.572H21.43A2.57 2.57 0 0 0 24 18.857V8.571A2.571 2.571 0 0 0 21.429 6h-3l-2.315-3.086a.858.858 0 0 0-.685-.343H8.57Z"/><path fill="#667085" d="M12 17.44A4.22 4.22 0 1 0 12 9a4.22 4.22 0 0 0 0 8.44Z"/></g><defs><clipPath id="a"><path fill="#fff" d="M0 0h24v24H0z"/></clipPath></defs></svg>