<svg xmlns="http://www.w3.org/2000/svg" width="24" height="20" viewBox="0 0 24 20" fill="none">
  <path d="M8.57143 0.571426C8.43836 0.571426 8.30712 0.602408 8.1881 0.661917C8.06908 0.721427 7.96555 0.80783 7.88571 0.914284L5.57143 4H2.57143C1.88944 4 1.23539 4.27092 0.753154 4.75315C0.270918 5.23539 0 5.88944 0 6.57143L0 16.8571C0 17.5391 0.270918 18.1932 0.753154 18.6754C1.23539 19.1577 1.88944 19.4286 2.57143 19.4286H21.4286C22.1106 19.4286 22.7646 19.1577 23.2468 18.6754C23.7291 18.1932 24 17.5391 24 16.8571V6.57143C24 5.88944 23.7291 5.23539 23.2468 4.75315C22.7646 4.27092 22.1106 4 21.4286 4H18.4286L16.1143 0.914284C16.0344 0.80783 15.9309 0.721427 15.8119 0.661917C15.6929 0.602408 15.5616 0.571426 15.4286 0.571426H8.57143Z" fill="#EEEEEE"/>
  <path d="M12 15.4394C13.1191 15.4394 14.1924 14.9949 14.9838 14.2035C15.7751 13.4122 16.2197 12.3389 16.2197 11.2197C16.2197 10.1006 15.7751 9.02728 14.9838 8.23593C14.1924 7.44458 13.1191 7 12 7C10.8808 7 9.80755 7.44458 9.0162 8.23593C8.22485 9.02728 7.78027 10.1006 7.78027 11.2197C7.78027 12.3389 8.22485 13.4122 9.0162 14.2035C9.80755 14.9949 10.8808 15.4394 12 15.4394Z" fill="#9E9E9E"/>
</svg>