<svg xmlns="http://www.w3.org/2000/svg" width="16" height="16" viewBox="0 0 20 24" fill="none">
  <path d="M16.857 9.42857H3.14275C2.19599 9.42857 1.42847 10.1961 1.42847 11.1429V21.4286C1.42847 22.3754 2.19599 23.1429 3.14275 23.1429H16.857C17.8038 23.1429 18.5713 22.3754 18.5713 21.4286V11.1429C18.5713 10.1961 17.8038 9.42857 16.857 9.42857Z" stroke="#9E9E9E" stroke-linecap="round" stroke-linejoin="round"/>
  <path d="M4 9.42858V6.85715C4 5.26584 4.63214 3.73972 5.75737 2.61451C6.88257 1.48929 8.4087 0.857147 10 0.857147C11.5913 0.857147 13.1174 1.48929 14.2426 2.61451C14.9177 3.28954 15.4153 4.10885 15.7054 4.99997" stroke="#9E9E9E" stroke-linecap="round" stroke-linejoin="round"/>
  <path d="M9.99996 17.6429C10.7495 17.6429 11.3571 17.0352 11.3571 16.2857C11.3571 15.5362 10.7495 14.9286 9.99996 14.9286C9.25044 14.9286 8.64282 15.5362 8.64282 16.2857C8.64282 17.0352 9.25044 17.6429 9.99996 17.6429Z" stroke="#9E9E9E" stroke-linecap="round" stroke-linejoin="round"/>
</svg>