<svg width="14" height="16" viewBox="0 0 14 16" fill="none" xmlns="http://www.w3.org/2000/svg">
<path d="M11.5714 6.28589H2.4285C1.79732 6.28589 1.28564 6.79757 1.28564 7.42875V14.2859C1.28564 14.9171 1.79732 15.4287 2.4285 15.4287H11.5714C12.2026 15.4287 12.7142 14.9171 12.7142 14.2859V7.42875C12.7142 6.79757 12.2026 6.28589 11.5714 6.28589Z" stroke="#32D5BA" stroke-linecap="round" stroke-linejoin="round"/>
<path d="M3 6.28582V4.57153C3 3.51066 3.42143 2.49325 4.17158 1.74311C4.92171 0.992961 5.93913 0.571533 7 0.571533C8.06087 0.571533 9.07829 0.992961 9.82842 1.74311C10.2785 2.19313 10.6102 2.73934 10.8036 3.33341" stroke="#32D5BA" stroke-linecap="round" stroke-linejoin="round"/>
<path d="M7.00014 11.9287C7.59187 11.9287 8.07157 11.449 8.07157 10.8573C8.07157 10.2656 7.59187 9.78589 7.00014 9.78589C6.40841 9.78589 5.92871 10.2656 5.92871 10.8573C5.92871 11.449 6.40841 11.9287 7.00014 11.9287Z" stroke="#32D5BA" stroke-linecap="round" stroke-linejoin="round"/>
</svg>
