<svg xmlns="http://www.w3.org/2000/svg" width="19" height="19" viewBox="0 0 19 19" fill="none">
  <path fill-rule="evenodd" clip-rule="evenodd" d="M14.3187 5.85776V9.42919H15.033C15.5066 9.42919 15.9608 9.24105 16.2957 8.90617C16.6305 8.57128 16.8187 8.11708 16.8187 7.64348C16.8187 7.16988 16.6305 6.71567 16.2957 6.38079C15.9608 6.0459 15.5066 5.85776 15.033 5.85776H14.3187ZM14.3187 11.572C14.3187 12.5192 13.9424 13.4277 13.2726 14.0974C12.6029 14.7672 11.6944 15.1435 10.7472 15.1435H3.60439C2.65719 15.1435 1.74878 14.7672 1.07901 14.0974C0.409233 13.4277 0.032959 12.5192 0.032959 11.572V5.14348C0.032959 4.7646 0.183469 4.40123 0.451378 4.13332C0.719287 3.86541 1.08265 3.7149 1.46153 3.7149H12.1715H12.1772H15.0344C16.0763 3.7149 17.0756 4.12881 17.8123 4.86556C18.5491 5.60231 18.963 6.60155 18.963 7.64348C18.963 8.6854 18.5491 9.68465 17.8123 10.4214C17.0756 11.1581 16.0763 11.572 15.0344 11.572H14.3201H14.3187Z" fill="#FCFCFD"/>
  <path fill-rule="evenodd" clip-rule="evenodd" d="M4.6258 0.826571C4.6258 0.62192 4.5445 0.42565 4.39979 0.28094C4.25508 0.136229 4.05881 0.0549316 3.85416 0.0549316C3.64951 0.0549316 3.45324 0.136229 3.30853 0.28094C3.16382 0.42565 3.08252 0.62192 3.08252 0.826571V1.57763C3.08252 1.78228 3.16382 1.97855 3.30853 2.12326C3.45324 2.26798 3.64951 2.34927 3.85416 2.34927C4.05881 2.34927 4.25508 2.26798 4.39979 2.12326C4.5445 1.97855 4.6258 1.78228 4.6258 1.57763V0.826571ZM10.0016 0.0549316C10.1029 0.0549316 10.2032 0.0748907 10.2968 0.113669C10.3905 0.152448 10.4755 0.209286 10.5472 0.28094C10.6188 0.352593 10.6757 0.437658 10.7145 0.531277C10.7532 0.624897 10.7732 0.725238 10.7732 0.826571V1.57763C10.7732 1.78228 10.6919 1.97855 10.5472 2.12326C10.4025 2.26798 10.2062 2.34927 10.0016 2.34927C9.7969 2.34927 9.60063 2.26798 9.45592 2.12326C9.31121 1.97855 9.22991 1.78228 9.22991 1.57763V0.826571C9.22991 0.62192 9.31121 0.42565 9.45592 0.28094C9.60063 0.136229 9.7969 0.0549316 10.0016 0.0549316ZM7.70001 0.826571C7.70001 0.62192 7.61871 0.42565 7.474 0.28094C7.32929 0.136229 7.13302 0.0549316 6.92837 0.0549316C6.72372 0.0549316 6.52745 0.136229 6.38274 0.28094C6.23803 0.42565 6.15673 0.62192 6.15673 0.826571V1.57763C6.15673 1.78228 6.23803 1.97855 6.38274 2.12326C6.52745 2.26798 6.72372 2.34927 6.92837 2.34927C7.13302 2.34927 7.32929 2.26798 7.474 2.12326C7.61871 1.97855 7.70001 1.78228 7.70001 1.57763V0.826571Z" fill="#FCFCFD"/>
  <path d="M1.14513 16.8782C1.27416 16.7492 1.44917 16.6767 1.63165 16.6767H13.0495C13.232 16.6767 13.407 16.7492 13.536 16.8782C13.665 17.0072 13.7375 17.1822 13.7375 17.3647C13.7375 17.5472 13.665 17.7222 13.536 17.8512C13.407 17.9803 13.232 18.0528 13.0495 18.0528H1.63165C1.44917 18.0528 1.27416 17.9803 1.14513 17.8512C1.01609 17.7222 0.943604 17.5472 0.943604 17.3647C0.943604 17.1822 1.01609 17.0072 1.14513 16.8782Z" fill="#FCFCFD"/>
</svg>