<svg xmlns="http://www.w3.org/2000/svg" width="32" height="32" fill="none"><rect width="32" height="32" fill="#344054" rx="16"/><path fill="#FCFCFD" fill-rule="evenodd" d="M21.319 12.858v3.571h.714a1.786 1.786 0 1 0 0-3.571h-.714Zm0 5.714a3.571 3.571 0 0 1-3.572 3.572h-7.143a3.571 3.571 0 0 1-3.571-3.572v-6.428a1.429 1.429 0 0 1 1.429-1.43H22.034a3.928 3.928 0 1 1 0 7.858h-.715ZM11.626 7.827a.772.772 0 0 0-1.543 0v.75a.772.772 0 0 0 1.543 0v-.75Zm5.376-.772a.771.771 0 0 1 .771.772v.75a.772.772 0 0 1-1.543 0v-.75a.772.772 0 0 1 .772-.772Zm-2.302.772a.772.772 0 0 0-1.543 0v.75a.772.772 0 0 0 1.543 0v-.75Z" clip-rule="evenodd"/><path fill="#FCFCFD" d="M8.145 23.878a.688.688 0 0 1 .487-.201h11.417a.688.688 0 1 1 0 1.376H8.632a.688.688 0 0 1-.487-1.175Z"/></svg>