<svg xmlns="http://www.w3.org/2000/svg" width="32" height="32" fill="none"><rect width="32" height="32" fill="#344054" rx="16"/><path fill="#FCFCFD" d="M8.902 6.625A1.4 1.4 0 0 0 7.51 7.782c-.192 1.139-.462 3.13-.44 5.26a2.594 2.594 0 0 0 2.047 2.526c.181.04.372.078.57.11l-.768 7.31c-.115 1.095.567 2.196 1.702 2.354.147.02.287.033.406.033.12 0 .26-.013.406-.033 1.135-.159 1.817-1.259 1.702-2.354l-.768-7.31c.198-.032.389-.07.57-.11a2.594 2.594 0 0 0 2.047-2.525c.022-2.13-.248-4.122-.441-5.261a1.398 1.398 0 0 0-1.393-1.157h-.121a.208.208 0 0 0-.209.218l.185 4.071a.52.52 0 1 1-1.04.047l-.188-4.137a.208.208 0 0 0-.209-.199h-1.083a.208.208 0 0 0-.208.2l-.188 4.136a.52.52 0 0 1-1.01.153.52.52 0 0 1-.031-.2l.185-4.071a.208.208 0 0 0-.208-.218h-.122ZM22.406 15.679c.01.002.01.004 0 .006l.767 7.303c.115 1.095-.566 2.195-1.701 2.354a3.05 3.05 0 0 1-.407.033c-.119 0-.259-.013-.405-.033-1.135-.158-1.817-1.259-1.702-2.354l.767-7.31s2.525.037 2.681.007v-.006Z"/><ellipse cx="21.066" cy="11.352" fill="#FCFCFD" rx="3.867" ry="4.727"/></svg>