<svg width="24" height="24" viewBox="0 0 24 24" fill="none" xmlns="http://www.w3.org/2000/svg">
<path d="M15.4694 3.63864L15.4694 3.63865L15.4727 3.63535C15.6257 3.4818 15.808 3.35974 16.0091 3.27637L15.7235 2.58741L16.0091 3.27637C16.2102 3.193 16.426 3.15002 16.6441 3.15002C16.8621 3.15002 17.078 3.193 17.2791 3.27637L17.5663 2.58355L17.2791 3.27637C17.4801 3.35974 17.6624 3.4818 17.8154 3.63535L17.8176 3.63752L20.3595 6.16705L20.3628 6.17027C20.5173 6.3222 20.6398 6.50295 20.7234 6.70193L21.3772 6.42742L20.7234 6.70194C20.8069 6.90092 20.8499 7.11429 20.8499 7.32972C20.8499 7.54515 20.8069 7.75852 20.7234 7.9575L21.4149 8.24784L20.7234 7.9575C20.6398 8.15649 20.5173 8.33724 20.3628 8.48917L20.3628 8.48915L20.3584 8.49352L9.50746 19.3375C9.32692 19.5179 9.09549 19.6387 8.84425 19.6837L3.6615 20.6121C3.49153 20.6425 3.34261 20.4956 3.37077 20.3253L4.23329 15.1066C4.27619 14.8471 4.39986 14.6077 4.58671 14.4226L15.4694 3.63864Z" stroke="#9E9E9E" stroke-width="1.5"/>
<path d="M12 21L21.6 21" stroke="#9E9E9E" stroke-width="1.5" stroke-linecap="round"/>
</svg>
