<svg xmlns="http://www.w3.org/2000/svg" width="24" height="24" fill="none"><g clip-path="url(#a)"><path fill="#344054" fill-rule="evenodd" d="M8.165 3.034a1.79 1.79 0 1 0 .002 3.58 1.79 1.79 0 0 0-.002-3.58ZM2.414 5.593H4.93a3.325 3.325 0 0 0 6.469 0h10.186a.767.767 0 1 0 0-1.535H11.4a3.325 3.325 0 0 0-6.47 0H2.415a.767.767 0 0 0 0 1.535Zm13.42 5.116a1.79 1.79 0 1 0 .002 3.58 1.79 1.79 0 0 0-.002-3.58ZM12.6 11.733a3.325 3.325 0 0 1 6.47 0h2.516a.767.767 0 0 1 0 1.534H19.07a3.325 3.325 0 0 1-6.47 0H2.415a.767.767 0 0 1 0-1.534H12.6Zm-6.224 8.442a1.79 1.79 0 1 1 3.58-.002 1.79 1.79 0 0 1-3.58.002Zm1.79-3.326a3.325 3.325 0 0 0-3.235 2.558H2.414a.767.767 0 0 0 0 1.535H4.93a3.325 3.325 0 0 0 6.469 0h10.186a.767.767 0 0 0 0-1.535H11.4a3.325 3.325 0 0 0-3.235-2.558Z" clip-rule="evenodd"/></g><defs><clipPath id="a"><path fill="#fff" d="M0 0h24v24H0z"/></clipPath></defs></svg>