<svg xmlns="http://www.w3.org/2000/svg" width="72" height="72" viewBox="0 0 72 72" fill="none">
  <path d="M36 72C55.8823 72 72.0001 55.8822 72.0001 36C72.0001 16.1177 55.8823 0 36 0C16.1178 0 0 16.1177 0 36C0 55.8822 16.1178 72 36 72Z" fill="url(#paint0_linear_2075_292)"/>
  <mask id="mask0_2075_292" style="mask-type:alpha" maskUnits="userSpaceOnUse" x="0" y="0" width="72" height="72">
    <path d="M36 72C55.8823 72 72.0001 55.8822 72.0001 36C72.0001 16.1177 55.8823 0 36 0C16.1178 0 0 16.1177 0 36C0 55.8822 16.1178 72 36 72Z" fill="#D9D9D9"/>
  </mask>
  <g mask="url(#mask0_2075_292)">
    <path d="M36.0055 74.8798C45.6403 74.8855 54.7841 70.3702 60.9829 62.5455C56.0986 52.7089 46.4805 46.5513 36.0003 46.5513C25.52 46.5513 15.9019 52.7089 11.0176 62.5455C17.2197 70.3719 26.3674 74.8873 36.0055 74.8798Z" fill="url(#paint1_linear_2075_292)"/>
  </g>
  <path d="M36.1775 43.1674C43.1272 43.1674 48.7612 37.5335 48.7612 30.5837C48.7612 23.6339 43.1272 18 36.1775 18C29.2277 18 23.5938 23.6339 23.5938 30.5837C23.5938 37.5335 29.2277 43.1674 36.1775 43.1674Z" fill="white"/>
  <defs>
    <linearGradient id="paint0_linear_2075_292" x1="36" y1="0" x2="36" y2="72" gradientUnits="userSpaceOnUse">
      <stop stop-color="#39D7BD"/>
      <stop offset="1" stop-color="#AFF7EC"/>
    </linearGradient>
    <linearGradient id="paint1_linear_2075_292" x1="36.0003" y1="46.5513" x2="36.0003" y2="86.5825" gradientUnits="userSpaceOnUse">
      <stop stop-color="white"/>
      <stop offset="1" stop-color="white" stop-opacity="0"/>
    </linearGradient>
  </defs>
</svg>