<svg xmlns="http://www.w3.org/2000/svg" width="140" height="140" viewBox="0 0 140 140" fill="none">
  <path fill-rule="evenodd" clip-rule="evenodd" d="M47.2929 48.1428C41.0571 48.1428 36 53.2 36 59.4428V124.793C36 131.029 41.0571 136.086 47.2929 136.086H88.8857C95.1286 136.086 100.186 131.029 100.186 124.793V59.4285C100.18 56.4346 98.9872 53.5652 96.8689 51.4495C94.7505 49.3339 91.8796 48.1447 88.8857 48.1428H47.2929Z" fill="url(#paint0_linear_2742_52490)"/>
  <path fill-rule="evenodd" clip-rule="evenodd" d="M51.1044 54.3928C46.0733 54.3928 41.9932 58.6543 41.9932 63.915V118.984C41.9932 124.238 46.0733 128.5 51.1044 128.5H84.6619C89.6987 128.5 93.7789 124.238 93.7789 118.984V63.903C93.7743 61.3801 92.8119 58.9621 91.1028 57.1793C89.3937 55.3965 87.0774 54.3944 84.6619 54.3928H82.1442C80.5926 54.3928 79.3348 55.6506 79.3348 57.2022C79.3348 58.7538 78.0769 60.0117 76.5253 60.0117H59.6643C58.1127 60.0117 56.8549 58.7538 56.8549 57.2022C56.8549 55.6506 55.5971 54.3928 54.0455 54.3928H51.1044Z" fill="white"/>
  <path fill-rule="evenodd" clip-rule="evenodd" d="M59.7578 118.679C59.7578 117.258 60.3222 115.895 61.3269 114.89C62.3315 113.886 63.6942 113.321 65.115 113.321H71.0578C71.7613 113.321 72.4579 113.46 73.1079 113.729C73.7579 113.998 74.3484 114.393 74.8459 114.89C75.3433 115.388 75.7379 115.979 76.0072 116.628C76.2764 117.278 76.415 117.975 76.415 118.679C76.415 119.382 76.2764 120.079 76.0072 120.729C75.7379 121.379 75.3433 121.969 74.8459 122.467C74.3484 122.964 73.7579 123.359 73.1079 123.628C72.4579 123.897 71.7613 124.036 71.0578 124.036H65.115C63.6942 124.036 62.3315 123.471 61.3269 122.467C60.3222 121.462 59.7578 120.099 59.7578 118.679Z" fill="#EEF4FF"/>
  <path fill-rule="evenodd" clip-rule="evenodd" d="M119.432 79.5011C125.346 86.2997 125.346 97.485 119.432 104.289C118.862 104.945 118.574 105.803 118.63 106.675C118.687 107.546 119.084 108.358 119.734 108.934C120.384 109.509 121.234 109.8 122.097 109.743C122.96 109.686 123.764 109.285 124.334 108.628C132.403 99.344 132.403 84.446 124.334 75.1565C124.052 74.8315 123.709 74.5659 123.324 74.3747C122.94 74.1836 122.523 74.0708 122.095 74.0426C121.668 74.0145 121.239 74.0717 120.834 74.2109C120.428 74.35 120.054 74.5685 119.732 74.8537C119.41 75.139 119.147 75.4855 118.957 75.8734C118.768 76.2614 118.656 76.6832 118.629 77.1147C118.601 77.5463 118.657 77.9791 118.795 78.3886C118.933 78.798 119.149 79.1761 119.432 79.5011ZM109.596 84.4934C110.894 86.3998 111.64 89.0644 111.64 91.8924C111.64 94.7203 110.894 97.3902 109.596 99.2913C109.137 100.01 108.974 100.88 109.139 101.718C109.305 102.556 109.787 103.296 110.483 103.782C111.18 104.268 112.036 104.461 112.871 104.32C113.706 104.18 114.454 103.717 114.957 103.03C117.153 99.8179 118.159 95.7735 118.159 91.8924C118.159 88.0112 117.153 83.9721 114.957 80.7545C114.72 80.3836 114.412 80.0646 114.051 79.8163C113.69 79.568 113.283 79.3956 112.855 79.3092C112.426 79.2228 111.985 79.2243 111.557 79.3136C111.129 79.4028 110.724 79.578 110.364 79.8286C110.005 80.0793 109.699 80.4004 109.465 80.7729C109.231 81.1453 109.073 81.5615 109.001 81.9966C108.93 82.4318 108.945 82.877 109.047 83.306C109.149 83.7349 109.336 84.1387 109.596 84.4934Z" fill="#EEF4FF"/>
  <defs>
    <linearGradient id="paint0_linear_2742_52490" x1="68.0929" y1="48.1428" x2="68.0929" y2="136.086" gradientUnits="userSpaceOnUse">
      <stop stop-color="#32D5BA"/>
      <stop offset="1" stop-color="#32D5BA" stop-opacity="0.5"/>
    </linearGradient>
  </defs>
</svg>