<svg width="242" height="258" viewBox="0 0 242 258" fill="none" xmlns="http://www.w3.org/2000/svg">
<circle cx="119.5" cy="150.5" r="107.5" fill="#F5F8FF"/>
<path d="M206.478 28.0777C201.849 28.0325 197.214 28.2622 191.716 28.1541C191.108 28.1804 190.516 27.9621 190.066 27.5482C189.62 27.1351 189.356 26.5607 189.329 25.9526C189.307 25.3446 189.525 24.7496 189.935 24.3026C190.348 23.8565 190.923 23.5927 191.531 23.5663C196.487 23.2971 201.618 23.3981 206.567 23.4954L206.568 23.4954C207.175 23.5074 207.755 23.7596 208.174 24.1996C208.597 24.6355 208.826 25.2243 208.814 25.8316C208.802 26.439 208.55 27.0183 208.11 27.4372C207.674 27.8604 207.085 28.0896 206.478 28.0777Z" fill="url(#paint0_linear_1762_35875)"/>
<path d="M183.718 19.1954C183.441 19.32 183.148 19.3909 182.847 19.4042C182.547 19.4249 182.248 19.3807 181.966 19.2835C181.685 19.1863 181.421 19.0319 181.2 18.8292C180.979 18.6298 180.8 18.3863 180.672 18.112C180.544 17.842 180.475 17.5464 180.464 17.2486C180.224 12.9349 180.039 8.34719 180.129 3.76491C180.141 3.15755 180.394 2.57831 180.836 2.15943C181.269 1.73622 181.857 1.50694 182.465 1.5189C183.074 1.53087 183.652 1.78309 184.069 2.22301C184.493 2.65894 184.724 3.24768 184.712 3.85504C184.625 8.25403 184.811 12.796 185.003 17.0171C185.022 17.315 184.983 17.6159 184.885 17.9007C184.788 18.1814 184.633 18.4425 184.429 18.6635C184.233 18.8889 183.987 19.0674 183.718 19.1954Z" fill="url(#paint1_linear_1762_35875)"/>
<path d="M175.16 27.6547C170.078 27.5548 164.985 27.5921 160.398 27.7311C159.798 27.7118 159.228 27.4714 158.803 27.0538C158.369 26.6402 158.105 26.0816 158.059 25.4847C158.056 25.1829 158.104 24.8855 158.218 24.6052C158.323 24.3206 158.486 24.0679 158.699 23.8504C158.903 23.6335 159.157 23.4585 159.434 23.3381C159.712 23.2177 160.005 23.151 160.305 23.1452C165.861 22.8878 170.076 22.9707 175.3 23.0734C175.908 23.0971 176.487 23.3601 176.903 23.8042C177.327 24.2518 177.558 24.8448 177.546 25.4555C177.54 25.7571 177.467 26.0574 177.345 26.3342C177.223 26.6101 177.043 26.8591 176.822 27.0648C176.593 27.2662 176.34 27.4254 176.055 27.5273C175.761 27.6282 175.46 27.6723 175.16 27.6547Z" fill="url(#paint2_linear_1762_35875)"/>
<path d="M180.939 46.8402C180.707 42.5266 180.522 37.9389 180.612 33.3566C180.633 32.7461 180.894 32.1661 181.344 31.7474C181.786 31.3285 182.382 31.0994 182.99 31.1114C183.598 31.1234 184.177 31.3756 184.593 31.8155C185.018 32.2515 185.248 32.8402 185.236 33.4476C185.15 37.8466 185.335 42.3884 185.527 46.6095C185.557 47.2177 185.345 47.8128 184.936 48.2674C184.527 48.7177 183.955 48.989 183.346 49.0187C182.737 49.0492 182.141 48.8383 181.691 48.4286C181.241 48.0188 180.968 47.4484 180.939 46.8402Z" fill="url(#paint3_linear_1762_35875)"/>
<mask id="mask0_1762_35875" style="mask-type:alpha" maskUnits="userSpaceOnUse" x="12" y="43" width="216" height="216">
<circle cx="119.555" cy="150.5" r="107.5" fill="#F5F8FF"/>
</mask>
<g mask="url(#mask0_1762_35875)">
<g filter="url(#filter0_d_1762_35875)">
<path d="M80.6758 105.803L177.017 92.8347L187.929 99.0059C190.48 100.448 192.057 103.152 192.057 106.083L192.057 215.599C192.058 222.783 186.234 228.607 179.049 228.607H95.7194C93.4698 228.607 91.3208 227.675 89.7836 226.033L82.301 218.038L80.6758 105.803Z" fill="url(#paint4_linear_1762_35875)"/>
<path d="M80.6758 100.152C80.6758 95.6615 84.3157 92.0215 88.8059 92.0215H172.546C179.281 92.0215 184.741 97.4814 184.741 104.217V213.16C184.741 217.65 181.101 221.29 176.611 221.29H88.8062C84.3161 221.29 80.6762 217.65 80.6762 213.16L80.6758 100.152Z" fill="url(#paint5_linear_1762_35875)"/>
<path d="M66.4302 97.6926C67.5017 94.3157 70.6366 92.0215 74.1795 92.0215H173.631C179.13 92.0215 183.043 97.3683 181.38 102.611L149.391 203.424C148.319 206.8 145.184 209.095 141.642 209.095H42.1906C36.6908 209.095 32.7779 203.748 34.4413 198.506L66.4302 97.6926Z" fill="url(#paint6_linear_1762_35875)"/>
<path fill-rule="evenodd" clip-rule="evenodd" d="M93.5756 84.3802C92.8426 86.1859 92.3035 88.9391 92.3035 92.1726C92.3035 94.5714 92.6008 96.7344 93.0697 98.4482C93.5626 100.249 94.1513 101.216 94.4805 101.561C95.9184 103.069 95.8562 105.451 94.3415 106.882C92.8267 108.313 90.4331 108.251 88.9952 106.743C87.4339 105.107 86.4147 102.774 85.7721 100.426C85.1057 97.9901 84.7402 95.1541 84.7402 92.1726C84.7402 88.2188 85.3839 84.4652 86.5629 81.5608C87.1485 80.1185 87.9407 78.7003 89.0139 77.5822C90.0962 76.4546 91.7148 75.3955 93.805 75.3955C97.0573 75.3955 99.3048 77.9076 100.474 79.8911C101.801 82.1437 102.626 85.083 102.626 88.2575V92.0209H95.0631V88.2575C95.0631 86.3295 94.5508 84.7195 93.9492 83.6984C93.9375 83.6786 93.9259 83.6592 93.9143 83.6401C93.8066 83.8475 93.6923 84.0928 93.5756 84.3802Z" fill="url(#paint7_linear_1762_35875)"/>
<path fill-rule="evenodd" clip-rule="evenodd" d="M93.5756 84.3802C92.8426 86.1859 92.3035 88.9391 92.3035 92.1726C92.3035 94.5714 92.6008 96.7344 93.0697 98.4482C93.5626 100.249 94.1513 101.216 94.4805 101.561C95.9184 103.069 95.8562 105.451 94.3415 106.882C92.8267 108.313 90.4331 108.251 88.9952 106.743C87.4339 105.107 86.4147 102.774 85.7721 100.426C85.1057 97.9901 84.7402 95.1541 84.7402 92.1726C84.7402 88.2188 85.3839 84.4652 86.5629 81.5608C87.1485 80.1185 87.9407 78.7003 89.0139 77.5822C90.0962 76.4546 91.7148 75.3955 93.805 75.3955C97.0573 75.3955 99.3048 77.9076 100.474 79.8911C101.801 82.1437 102.626 85.083 102.626 88.2575V92.0209H95.0631V88.2575C95.0631 86.3295 94.5508 84.7195 93.9492 83.6984C93.9375 83.6786 93.9259 83.6592 93.9143 83.6401C93.8066 83.8475 93.6923 84.0928 93.5756 84.3802Z" fill="url(#paint8_linear_1762_35875)" fill-opacity="0.2"/>
<path d="M122.845 84.3802C122.112 86.1859 121.573 88.9391 121.573 92.1726C121.573 94.5714 121.87 96.7344 122.339 98.4482C122.832 100.249 123.421 101.216 123.75 101.561C125.188 103.069 125.126 105.451 123.611 106.882C122.096 108.313 119.703 108.251 118.265 106.743C116.703 105.107 115.684 102.774 115.042 100.426C114.375 97.9901 114.01 95.1541 114.01 92.1726C114.01 88.2188 114.653 84.4652 115.832 81.5608C116.418 80.1185 117.21 78.7003 118.283 77.5822C119.366 76.4546 120.984 75.3955 123.074 75.3955C126.327 75.3955 128.574 77.9076 129.743 79.8911C131.07 82.1437 131.896 85.083 131.896 88.2575V92.0209H124.333V88.2575C124.333 86.3295 123.82 84.7195 123.219 83.6984C123.204 83.6727 123.166 83.674 123.153 83.7005C123.054 83.8947 122.951 84.1202 122.845 84.3802Z" fill="url(#paint9_linear_1762_35875)"/>
<path d="M122.845 84.3802C122.112 86.1859 121.573 88.9391 121.573 92.1726C121.573 94.5714 121.87 96.7344 122.339 98.4482C122.832 100.249 123.421 101.216 123.75 101.561C125.188 103.069 125.126 105.451 123.611 106.882C122.096 108.313 119.703 108.251 118.265 106.743C116.703 105.107 115.684 102.774 115.042 100.426C114.375 97.9901 114.01 95.1541 114.01 92.1726C114.01 88.2188 114.653 84.4652 115.832 81.5608C116.418 80.1185 117.21 78.7003 118.283 77.5822C119.366 76.4546 120.984 75.3955 123.074 75.3955C126.327 75.3955 128.574 77.9076 129.743 79.8911C131.07 82.1437 131.896 85.083 131.896 88.2575V92.0209H124.333V88.2575C124.333 86.3295 123.82 84.7195 123.219 83.6984C123.204 83.6727 123.166 83.674 123.153 83.7005C123.054 83.8947 122.951 84.1202 122.845 84.3802Z" fill="url(#paint10_linear_1762_35875)" fill-opacity="0.2"/>
<path fill-rule="evenodd" clip-rule="evenodd" d="M152.113 84.3802C151.38 86.1859 150.841 88.9391 150.841 92.1726C150.841 94.5714 151.138 96.7344 151.607 98.4482C152.1 100.249 152.688 101.216 153.018 101.561C154.456 103.069 154.393 105.451 152.879 106.882C151.364 108.313 148.97 108.251 147.532 106.743C145.971 105.107 144.952 102.774 144.309 100.426C143.643 97.9901 143.277 95.1541 143.277 92.1726C143.277 88.2188 143.921 84.4652 145.1 81.5608C145.686 80.1185 146.478 78.7003 147.551 77.5822C148.633 76.4546 150.252 75.3955 152.342 75.3955C155.594 75.3955 157.842 77.9076 159.011 79.8911C160.338 82.1437 161.164 85.083 161.164 88.2575V92.0209H153.6V88.2575C153.6 86.3295 153.088 84.7195 152.486 83.6984C152.475 83.6786 152.463 83.6592 152.451 83.6401C152.344 83.8475 152.229 84.0928 152.113 84.3802Z" fill="url(#paint11_linear_1762_35875)"/>
<path fill-rule="evenodd" clip-rule="evenodd" d="M152.113 84.3802C151.38 86.1859 150.841 88.9391 150.841 92.1726C150.841 94.5714 151.138 96.7344 151.607 98.4482C152.1 100.249 152.688 101.216 153.018 101.561C154.456 103.069 154.393 105.451 152.879 106.882C151.364 108.313 148.97 108.251 147.532 106.743C145.971 105.107 144.952 102.774 144.309 100.426C143.643 97.9901 143.277 95.1541 143.277 92.1726C143.277 88.2188 143.921 84.4652 145.1 81.5608C145.686 80.1185 146.478 78.7003 147.551 77.5822C148.633 76.4546 150.252 75.3955 152.342 75.3955C155.594 75.3955 157.842 77.9076 159.011 79.8911C160.338 82.1437 161.164 85.083 161.164 88.2575V92.0209H153.6V88.2575C153.6 86.3295 153.088 84.7195 152.486 83.6984C152.475 83.6786 152.463 83.6592 152.451 83.6401C152.344 83.8475 152.229 84.0928 152.113 84.3802Z" fill="url(#paint12_linear_1762_35875)" fill-opacity="0.2"/>
<path d="M151.875 194.274H125.875L128.542 187.94L191.542 135.94V176.274L151.875 194.274Z" fill="url(#paint13_linear_1762_35875)"/>
<path d="M127.283 193.614L131.743 189.076C132.719 188.085 132.703 186.479 131.709 185.507C130.714 184.528 129.115 184.543 128.136 185.538L123.676 190.077C122.697 191.072 122.712 192.671 123.707 193.65C123.816 193.75 123.927 193.846 124.048 193.929C125.037 194.612 126.405 194.508 127.283 193.614Z" fill="#32D5BA"/>
<path d="M237.566 98.184C241.197 94.4963 241.542 90.2735 240.542 86.2735C239.542 82.2735 233.408 75.9402 228.875 74.6069C224.342 73.2736 220.394 74.059 216.771 77.7526L140.152 155.739L160.951 176.174L237.566 98.184Z" fill="url(#paint14_linear_1762_35875)"/>
<path d="M132.909 189.944L160.95 176.174C160.95 176.174 164.556 170.607 155.223 161.274C145.541 151.592 140.142 155.727 140.142 155.727L127.191 184.359C126.921 184.96 127.052 185.673 127.531 186.13L131.12 189.656C131.184 189.719 131.254 189.774 131.327 189.825C131.788 190.142 132.392 190.197 132.909 189.944Z" fill="url(#paint15_angular_1762_35875)"/>
<path fill-rule="evenodd" clip-rule="evenodd" d="M140.092 135.79L91.1399 175.126L74.4922 149.917L81.1679 145.508L92.9755 163.388L135.081 129.554L140.092 135.79Z" fill="#32D5BA"/>
</g>
<path d="M50.2715 90.1925C55.1668 90.7553 66.5794 95.0618 73.0673 107.785C79.5551 120.507 77.2806 128.207 75.3323 130.467C73.9993 132.475 69.8725 135.552 64.0293 131.789C62.2098 129.97 59.5013 125.183 63.2235 120.589C66.9457 115.994 73.3608 117.73 76.103 119.172C81.408 122.496 92.3634 133.943 93.7447 153.143C95.126 172.344 81.4238 190.201 74.4 196.729C71.0676 199.554 61.9962 205.638 52.3691 207.373" stroke="url(#paint16_linear_1762_35875)" stroke-width="4" stroke-linecap="round" stroke-dasharray="5 10"/>
</g>
<path d="M164.055 42.0005C158.185 43.6731 139.255 58.1468 133.885 75.0007C128.516 91.8547 131.05 112.929 133.885 115.299C135.918 117.485 141.581 120.415 147.965 114.641C149.823 112.052 152.17 105.657 146.697 100.791C141.223 95.9244 133.733 99.3361 130.671 101.65C124.857 106.779 113.77 122.973 115.945 146.716C118.119 170.459 138.457 189.527 148.354 196.092C152.995 198.874 165.305 204.485 177.42 204.669" stroke="url(#paint17_linear_1762_35875)" stroke-width="4" stroke-linecap="round" stroke-dasharray="5 10"/>
<path d="M80.6758 105.803L177.017 92.8347L187.929 99.0059C190.48 100.448 192.057 103.152 192.057 106.083L192.057 215.599C192.058 222.783 186.234 228.607 179.049 228.607H95.7194C93.4698 228.607 91.3208 227.675 89.7836 226.033L82.301 218.038L80.6758 105.803Z" fill="url(#paint18_linear_1762_35875)"/>
<path d="M80.6758 100.152C80.6758 95.6615 84.3157 92.0215 88.8059 92.0215H172.546C179.281 92.0215 184.741 97.4814 184.741 104.217V213.16C184.741 217.65 181.101 221.29 176.611 221.29H88.8062C84.3161 221.29 80.6762 217.65 80.6762 213.16L80.6758 100.152Z" fill="url(#paint19_linear_1762_35875)"/>
<path d="M66.4302 97.6926C67.5017 94.3157 70.6366 92.0215 74.1795 92.0215H173.631C179.13 92.0215 183.043 97.3683 181.38 102.611L149.391 203.424C148.319 206.8 145.184 209.095 141.642 209.095H42.1906C36.6908 209.095 32.7779 203.748 34.4413 198.506L66.4302 97.6926Z" fill="url(#paint20_linear_1762_35875)"/>
<path fill-rule="evenodd" clip-rule="evenodd" d="M93.5756 84.3802C92.8426 86.1859 92.3035 88.9391 92.3035 92.1726C92.3035 94.5714 92.6008 96.7344 93.0697 98.4482C93.5626 100.249 94.1513 101.216 94.4805 101.561C95.9184 103.069 95.8562 105.451 94.3415 106.882C92.8267 108.313 90.4331 108.251 88.9952 106.743C87.4339 105.107 86.4147 102.774 85.7721 100.426C85.1057 97.9901 84.7402 95.1541 84.7402 92.1726C84.7402 88.2188 85.3839 84.4652 86.5629 81.5608C87.1485 80.1185 87.9407 78.7003 89.0139 77.5822C90.0962 76.4546 91.7148 75.3955 93.805 75.3955C97.0573 75.3955 99.3048 77.9076 100.474 79.8911C101.801 82.1437 102.626 85.083 102.626 88.2575V92.0209H95.0631V88.2575C95.0631 86.3295 94.5508 84.7195 93.9492 83.6984C93.9375 83.6786 93.9259 83.6592 93.9143 83.6401C93.8066 83.8475 93.6923 84.0928 93.5756 84.3802Z" fill="url(#paint21_linear_1762_35875)"/>
<path fill-rule="evenodd" clip-rule="evenodd" d="M93.5756 84.3802C92.8426 86.1859 92.3035 88.9391 92.3035 92.1726C92.3035 94.5714 92.6008 96.7344 93.0697 98.4482C93.5626 100.249 94.1513 101.216 94.4805 101.561C95.9184 103.069 95.8562 105.451 94.3415 106.882C92.8267 108.313 90.4331 108.251 88.9952 106.743C87.4339 105.107 86.4147 102.774 85.7721 100.426C85.1057 97.9901 84.7402 95.1541 84.7402 92.1726C84.7402 88.2188 85.3839 84.4652 86.5629 81.5608C87.1485 80.1185 87.9407 78.7003 89.0139 77.5822C90.0962 76.4546 91.7148 75.3955 93.805 75.3955C97.0573 75.3955 99.3048 77.9076 100.474 79.8911C101.801 82.1437 102.626 85.083 102.626 88.2575V92.0209H95.0631V88.2575C95.0631 86.3295 94.5508 84.7195 93.9492 83.6984C93.9375 83.6786 93.9259 83.6592 93.9143 83.6401C93.8066 83.8475 93.6923 84.0928 93.5756 84.3802Z" fill="url(#paint22_linear_1762_35875)" fill-opacity="0.2"/>
<path d="M122.845 84.3802C122.112 86.1859 121.573 88.9391 121.573 92.1726C121.573 94.5714 121.87 96.7344 122.339 98.4482C122.832 100.249 123.421 101.216 123.75 101.561C125.188 103.069 125.126 105.451 123.611 106.882C122.096 108.313 119.703 108.251 118.265 106.743C116.703 105.107 115.684 102.774 115.042 100.426C114.375 97.9901 114.01 95.1541 114.01 92.1726C114.01 88.2188 114.653 84.4652 115.832 81.5608C116.418 80.1185 117.21 78.7003 118.283 77.5822C119.366 76.4546 120.984 75.3955 123.074 75.3955C126.327 75.3955 128.574 77.9076 129.743 79.8911C131.07 82.1437 131.896 85.083 131.896 88.2575V92.0209H124.333V88.2575C124.333 86.3295 123.82 84.7195 123.219 83.6984C123.204 83.6727 123.166 83.674 123.153 83.7005C123.054 83.8947 122.951 84.1202 122.845 84.3802Z" fill="url(#paint23_linear_1762_35875)"/>
<path d="M122.845 84.3802C122.112 86.1859 121.573 88.9391 121.573 92.1726C121.573 94.5714 121.87 96.7344 122.339 98.4482C122.832 100.249 123.421 101.216 123.75 101.561C125.188 103.069 125.126 105.451 123.611 106.882C122.096 108.313 119.703 108.251 118.265 106.743C116.703 105.107 115.684 102.774 115.042 100.426C114.375 97.9901 114.01 95.1541 114.01 92.1726C114.01 88.2188 114.653 84.4652 115.832 81.5608C116.418 80.1185 117.21 78.7003 118.283 77.5822C119.366 76.4546 120.984 75.3955 123.074 75.3955C126.327 75.3955 128.574 77.9076 129.743 79.8911C131.07 82.1437 131.896 85.083 131.896 88.2575V92.0209H124.333V88.2575C124.333 86.3295 123.82 84.7195 123.219 83.6984C123.204 83.6727 123.166 83.674 123.153 83.7005C123.054 83.8947 122.951 84.1202 122.845 84.3802Z" fill="url(#paint24_linear_1762_35875)" fill-opacity="0.2"/>
<path fill-rule="evenodd" clip-rule="evenodd" d="M152.113 84.3802C151.38 86.1859 150.841 88.9391 150.841 92.1726C150.841 94.5714 151.138 96.7344 151.607 98.4482C152.1 100.249 152.688 101.216 153.018 101.561C154.456 103.069 154.393 105.451 152.879 106.882C151.364 108.313 148.97 108.251 147.532 106.743C145.971 105.107 144.952 102.774 144.309 100.426C143.643 97.9901 143.277 95.1541 143.277 92.1726C143.277 88.2188 143.921 84.4652 145.1 81.5608C145.686 80.1185 146.478 78.7003 147.551 77.5822C148.633 76.4546 150.252 75.3955 152.342 75.3955C155.594 75.3955 157.842 77.9076 159.011 79.8911C160.338 82.1437 161.164 85.083 161.164 88.2575V92.0209H153.6V88.2575C153.6 86.3295 153.088 84.7195 152.486 83.6984C152.475 83.6786 152.463 83.6592 152.451 83.6401C152.344 83.8475 152.229 84.0928 152.113 84.3802Z" fill="url(#paint25_linear_1762_35875)"/>
<path fill-rule="evenodd" clip-rule="evenodd" d="M152.113 84.3802C151.38 86.1859 150.841 88.9391 150.841 92.1726C150.841 94.5714 151.138 96.7344 151.607 98.4482C152.1 100.249 152.688 101.216 153.018 101.561C154.456 103.069 154.393 105.451 152.879 106.882C151.364 108.313 148.97 108.251 147.532 106.743C145.971 105.107 144.952 102.774 144.309 100.426C143.643 97.9901 143.277 95.1541 143.277 92.1726C143.277 88.2188 143.921 84.4652 145.1 81.5608C145.686 80.1185 146.478 78.7003 147.551 77.5822C148.633 76.4546 150.252 75.3955 152.342 75.3955C155.594 75.3955 157.842 77.9076 159.011 79.8911C160.338 82.1437 161.164 85.083 161.164 88.2575V92.0209H153.6V88.2575C153.6 86.3295 153.088 84.7195 152.486 83.6984C152.475 83.6786 152.463 83.6592 152.451 83.6401C152.344 83.8475 152.229 84.0928 152.113 84.3802Z" fill="url(#paint26_linear_1762_35875)" fill-opacity="0.2"/>
<path d="M151.875 194.274H125.875L128.542 187.94L191.542 135.94V176.274L151.875 194.274Z" fill="url(#paint27_linear_1762_35875)"/>
<path d="M127.283 193.614L131.743 189.076C132.719 188.085 132.703 186.479 131.709 185.507C130.714 184.528 129.115 184.543 128.136 185.538L123.676 190.077C122.697 191.072 122.712 192.671 123.707 193.65C123.816 193.75 123.927 193.846 124.048 193.929C125.037 194.612 126.405 194.508 127.283 193.614Z" fill="#32D5BA"/>
<path d="M237.566 98.184C241.197 94.4963 241.542 90.2735 240.542 86.2735C239.542 82.2735 233.408 75.9402 228.875 74.6069C224.342 73.2736 220.394 74.059 216.771 77.7526L140.152 155.739L160.951 176.174L237.566 98.184Z" fill="url(#paint28_linear_1762_35875)"/>
<path d="M132.909 189.944L160.95 176.174C160.95 176.174 164.556 170.607 155.223 161.274C145.541 151.592 140.142 155.727 140.142 155.727L127.191 184.359C126.921 184.96 127.052 185.673 127.531 186.13L131.12 189.656C131.184 189.719 131.254 189.774 131.327 189.825C131.788 190.142 132.392 190.197 132.909 189.944Z" fill="url(#paint29_angular_1762_35875)"/>
<path fill-rule="evenodd" clip-rule="evenodd" d="M137.586 132.672C138.97 134.394 138.696 136.912 136.974 138.296L95.4191 171.688C93.1232 173.533 89.7379 173.003 88.1148 170.545L76.6964 153.255C75.4791 151.411 75.9866 148.93 77.83 147.713C79.6735 146.495 82.1548 147.003 83.3722 148.846L92.3705 162.472C92.6951 162.964 93.3721 163.07 93.8313 162.701L131.963 132.06C133.685 130.676 136.202 130.95 137.586 132.672Z" fill="url(#paint30_linear_1762_35875)"/>
<path d="M29.4283 100.658C28.8123 96.0181 27.9202 91.4117 27.243 85.8917C27.1297 85.2867 27.2638 84.6633 27.6139 84.1534C27.9636 83.6478 28.5009 83.3018 29.1059 83.1885C29.7114 83.0794 30.3381 83.2122 30.8442 83.5593C31.3498 83.909 31.6959 84.4464 31.8091 85.0514C32.7866 89.9738 33.4186 95.1254 34.0281 100.093L34.0282 100.094C34.103 100.704 33.9333 101.32 33.5527 101.802C33.1768 102.288 32.6201 102.601 32.0104 102.676C31.4007 102.751 30.7848 102.581 30.3026 102.201C29.8167 101.825 29.5031 101.268 29.4283 100.658Z" fill="url(#paint31_linear_1762_35875)"/>
<path d="M35.0694 76.6051C34.905 76.3451 34.7922 76.0619 34.736 75.7632C34.6723 75.4653 34.6738 75.1595 34.7309 74.8639C34.788 74.5682 34.9049 74.2822 35.0763 74.0319C35.2443 73.7821 35.4626 73.5686 35.7188 73.4013C35.9709 73.2345 36.2569 73.1231 36.5534 73.0697C40.8374 72.213 45.4035 71.3727 50.0035 70.8083C50.6132 70.7335 51.2292 70.9041 51.7116 71.2864C52.1971 71.6598 52.5106 72.2155 52.5855 72.8261C52.6604 73.4366 52.4906 74.0518 52.1097 74.5315C51.734 75.019 51.1775 75.3334 50.5678 75.4082C46.1518 75.95 41.6317 76.7848 37.4336 77.58C37.1381 77.6417 36.8312 77.6454 36.5322 77.5887C36.2374 77.5315 35.9538 77.4135 35.7034 77.2405C35.4498 77.0763 35.236 76.8563 35.0694 76.6051Z" fill="url(#paint32_linear_1762_35875)"/>
<path d="M25.3785 69.2458C24.7526 64.144 23.9876 59.0507 23.1932 54.479C23.1269 53.8759 23.2861 53.2706 23.6434 52.7853C23.9955 52.2922 24.517 51.9481 25.1078 51.8162C25.4095 51.7706 25.7141 51.7757 26.0109 51.8497C26.3109 51.9148 26.5872 52.0421 26.8353 52.2239C27.0816 52.3974 27.293 52.6262 27.4531 52.8867C27.6133 53.1472 27.722 53.4311 27.7706 53.7307C28.822 59.2557 29.3412 63.4876 29.9846 68.7316C30.0478 69.3435 29.8671 69.96 29.482 70.4402C29.0946 70.9292 28.5339 71.2442 27.9208 71.3194C27.618 71.3566 27.3071 71.3268 27.0125 71.2441C26.7188 71.1613 26.4439 71.0167 26.2064 70.8251C25.9721 70.6247 25.7766 70.394 25.6338 70.1229C25.4909 69.8433 25.4037 69.5483 25.3785 69.2458Z" fill="url(#paint33_linear_1762_35875)"/>
<path d="M6.99913 77.7729C11.2841 76.9246 15.8502 76.0842 20.4502 75.5199C21.0642 75.453 21.6822 75.6319 22.1656 76.0225C22.648 76.4048 22.9625 76.9689 23.0374 77.5794C23.1123 78.19 22.9425 78.8051 22.5616 79.2848C22.1859 79.7724 21.6293 80.0868 21.0196 80.1616C16.6037 80.7034 12.0836 81.5381 7.88549 82.3333C7.28091 82.45 6.65494 82.323 6.14151 81.9785C5.63226 81.6335 5.27895 81.0996 5.16223 80.4942C5.04466 79.8888 5.17067 79.2622 5.51652 78.7528C5.86238 78.2435 6.39456 77.8895 6.99913 77.7729Z" fill="url(#paint34_linear_1762_35875)"/>
<defs>
<filter id="filter0_d_1762_35875" x="27.0547" y="70.0002" width="226.972" height="174.607" filterUnits="userSpaceOnUse" color-interpolation-filters="sRGB">
<feFlood flood-opacity="0" result="BackgroundImageFix"/>
<feColorMatrix in="SourceAlpha" type="matrix" values="0 0 0 0 0 0 0 0 0 0 0 0 0 0 0 0 0 0 127 0" result="hardAlpha"/>
<feOffset dx="3" dy="6"/>
<feGaussianBlur stdDeviation="5"/>
<feComposite in2="hardAlpha" operator="out"/>
<feColorMatrix type="matrix" values="0 0 0 0 0 0 0 0 0 0 0 0 0 0 0 0 0 0 0.1 0"/>
<feBlend mode="normal" in2="BackgroundImageFix" result="effect1_dropShadow_1762_35875"/>
<feBlend mode="normal" in="SourceGraphic" in2="effect1_dropShadow_1762_35875" result="shape"/>
</filter>
<linearGradient id="paint0_linear_1762_35875" x1="208.41" y1="25.2804" x2="188.305" y2="25.7134" gradientUnits="userSpaceOnUse">
<stop stop-color="#FFD166"/>
<stop offset="0.87" stop-color="#FFECC2"/>
</linearGradient>
<linearGradient id="paint1_linear_1762_35875" x1="182.393" y1="19.4035" x2="182.744" y2="1.52439" gradientUnits="userSpaceOnUse">
<stop stop-color="#FFDAE2"/>
<stop offset="1" stop-color="#FF869F"/>
</linearGradient>
<linearGradient id="paint2_linear_1762_35875" x1="158.02" y1="23.3401" x2="176.958" y2="22.9729" gradientUnits="userSpaceOnUse">
<stop stop-color="#FFD267"/>
<stop offset="0.89" stop-color="#FFEDC2"/>
</linearGradient>
<linearGradient id="paint3_linear_1762_35875" x1="182.895" y1="49.0155" x2="183.247" y2="31.1164" gradientUnits="userSpaceOnUse">
<stop stop-color="#FF839D"/>
<stop offset="0.86" stop-color="#FECDD8"/>
</linearGradient>
<linearGradient id="paint4_linear_1762_35875" x1="136.367" y1="92.8347" x2="136.367" y2="228.607" gradientUnits="userSpaceOnUse">
<stop stop-color="#BFD2FF"/>
<stop offset="1" stop-color="#98A2B3"/>
</linearGradient>
<linearGradient id="paint5_linear_1762_35875" x1="80.6758" y1="92.0215" x2="80.6758" y2="207.062" gradientUnits="userSpaceOnUse">
<stop stop-color="#F2F4F7" stop-opacity="0.5"/>
<stop offset="1" stop-color="#CFDCF9"/>
</linearGradient>
<linearGradient id="paint6_linear_1762_35875" x1="51.813" y1="150.558" x2="133.114" y2="197.306" gradientUnits="userSpaceOnUse">
<stop stop-color="#EEF4FF"/>
<stop offset="1" stop-color="white"/>
</linearGradient>
<linearGradient id="paint7_linear_1762_35875" x1="93.6833" y1="75.3955" x2="93.6833" y2="107.916" gradientUnits="userSpaceOnUse">
<stop stop-color="#A4BCFD"/>
<stop offset="1" stop-color="#EDF2FF"/>
</linearGradient>
<linearGradient id="paint8_linear_1762_35875" x1="102.626" y1="89.5825" x2="84.7402" y2="89.5825" gradientUnits="userSpaceOnUse">
<stop stop-color="#2D31A6"/>
<stop offset="1" stop-opacity="0"/>
</linearGradient>
<linearGradient id="paint9_linear_1762_35875" x1="122.953" y1="75.3955" x2="122.953" y2="107.916" gradientUnits="userSpaceOnUse">
<stop stop-color="#A4BCFD"/>
<stop offset="1" stop-color="#EDF2FF"/>
</linearGradient>
<linearGradient id="paint10_linear_1762_35875" x1="131.896" y1="89.5825" x2="114.01" y2="89.5825" gradientUnits="userSpaceOnUse">
<stop stop-color="#2D31A6"/>
<stop offset="1" stop-opacity="0"/>
</linearGradient>
<linearGradient id="paint11_linear_1762_35875" x1="152.22" y1="75.3955" x2="152.22" y2="107.916" gradientUnits="userSpaceOnUse">
<stop stop-color="#A4BCFD"/>
<stop offset="1" stop-color="#EDF2FF"/>
</linearGradient>
<linearGradient id="paint12_linear_1762_35875" x1="161.164" y1="89.5825" x2="143.277" y2="89.5825" gradientUnits="userSpaceOnUse">
<stop stop-color="#2D31A6"/>
<stop offset="1" stop-opacity="0"/>
</linearGradient>
<linearGradient id="paint13_linear_1762_35875" x1="125.542" y1="193.94" x2="202.875" y2="152.94" gradientUnits="userSpaceOnUse">
<stop stop-color="#5A5F6A"/>
<stop offset="1" stop-color="#5A5F6A" stop-opacity="0"/>
</linearGradient>
<linearGradient id="paint14_linear_1762_35875" x1="175.025" y1="121.167" x2="196.163" y2="142.306" gradientUnits="userSpaceOnUse">
<stop offset="0.373238" stop-color="#35D6BB"/>
<stop offset="0.799048" stop-color="#0EC6A7"/>
</linearGradient>
<radialGradient id="paint15_angular_1762_35875" cx="0" cy="0" r="1" gradientUnits="userSpaceOnUse" gradientTransform="translate(129.049 187.957) rotate(-32.0054) scale(19.1748 18.9075)">
<stop offset="0.044665" stop-color="#E0EAFF"/>
<stop offset="0.87965" stop-color="#EEF4FF"/>
<stop offset="0.926478" stop-color="white"/>
<stop offset="0.997575" stop-color="#EEF4FF"/>
</radialGradient>
<linearGradient id="paint16_linear_1762_35875" x1="89.3473" y1="165.807" x2="46.9226" y2="111.671" gradientUnits="userSpaceOnUse">
<stop stop-color="#FFB1C1"/>
<stop offset="1" stop-color="#FFE4A2"/>
</linearGradient>
<linearGradient id="paint17_linear_1762_35875" x1="123.866" y1="161.307" x2="164.825" y2="86.6122" gradientUnits="userSpaceOnUse">
<stop stop-color="#FFB1C1"/>
<stop offset="1" stop-color="#FFE4A2"/>
</linearGradient>
<linearGradient id="paint18_linear_1762_35875" x1="136.367" y1="92.8347" x2="136.367" y2="228.607" gradientUnits="userSpaceOnUse">
<stop stop-color="#BFD2FF"/>
<stop offset="1" stop-color="#98A2B3"/>
</linearGradient>
<linearGradient id="paint19_linear_1762_35875" x1="80.6758" y1="92.0215" x2="80.6758" y2="207.062" gradientUnits="userSpaceOnUse">
<stop stop-color="#F2F4F7" stop-opacity="0.5"/>
<stop offset="1" stop-color="#CFDCF9"/>
</linearGradient>
<linearGradient id="paint20_linear_1762_35875" x1="-95.9453" y1="98.5003" x2="133.114" y2="197.306" gradientUnits="userSpaceOnUse">
<stop stop-color="#EEF4FF"/>
<stop offset="1" stop-color="white"/>
</linearGradient>
<linearGradient id="paint21_linear_1762_35875" x1="93.6833" y1="75.3955" x2="93.6833" y2="107.916" gradientUnits="userSpaceOnUse">
<stop stop-color="#A4BCFD"/>
<stop offset="1" stop-color="#EDF2FF"/>
</linearGradient>
<linearGradient id="paint22_linear_1762_35875" x1="102.626" y1="89.5825" x2="84.7402" y2="89.5825" gradientUnits="userSpaceOnUse">
<stop stop-color="#2D31A6"/>
<stop offset="1" stop-opacity="0"/>
</linearGradient>
<linearGradient id="paint23_linear_1762_35875" x1="122.953" y1="75.3955" x2="122.953" y2="107.916" gradientUnits="userSpaceOnUse">
<stop stop-color="#A4BCFD"/>
<stop offset="1" stop-color="#EDF2FF"/>
</linearGradient>
<linearGradient id="paint24_linear_1762_35875" x1="131.896" y1="89.5825" x2="114.01" y2="89.5825" gradientUnits="userSpaceOnUse">
<stop stop-color="#2D31A6"/>
<stop offset="1" stop-opacity="0"/>
</linearGradient>
<linearGradient id="paint25_linear_1762_35875" x1="152.22" y1="75.3955" x2="152.22" y2="107.916" gradientUnits="userSpaceOnUse">
<stop stop-color="#A4BCFD"/>
<stop offset="1" stop-color="#EDF2FF"/>
</linearGradient>
<linearGradient id="paint26_linear_1762_35875" x1="161.164" y1="89.5825" x2="143.277" y2="89.5825" gradientUnits="userSpaceOnUse">
<stop stop-color="#2D31A6"/>
<stop offset="1" stop-opacity="0"/>
</linearGradient>
<linearGradient id="paint27_linear_1762_35875" x1="125.542" y1="193.94" x2="202.875" y2="152.94" gradientUnits="userSpaceOnUse">
<stop stop-color="#5A5F6A"/>
<stop offset="1" stop-color="#5A5F6A" stop-opacity="0"/>
</linearGradient>
<linearGradient id="paint28_linear_1762_35875" x1="175.025" y1="121.167" x2="196.163" y2="142.306" gradientUnits="userSpaceOnUse">
<stop offset="0.373238" stop-color="#35D6BB"/>
<stop offset="0.799048" stop-color="#0EC6A7"/>
</linearGradient>
<radialGradient id="paint29_angular_1762_35875" cx="0" cy="0" r="1" gradientUnits="userSpaceOnUse" gradientTransform="translate(129.049 187.957) rotate(-32.0054) scale(19.1748 18.9075)">
<stop offset="0.044665" stop-color="#E0EAFF"/>
<stop offset="0.87965" stop-color="#EEF4FF"/>
<stop offset="0.926478" stop-color="white"/>
<stop offset="0.997575" stop-color="#EEF4FF"/>
</radialGradient>
<linearGradient id="paint30_linear_1762_35875" x1="123.555" y1="130" x2="82.5547" y2="235.5" gradientUnits="userSpaceOnUse">
<stop stop-color="#32D5BA"/>
<stop offset="1" stop-color="#32D5BA" stop-opacity="0"/>
</linearGradient>
<linearGradient id="paint31_linear_1762_35875" x1="32.5045" y1="102.193" x2="29.199" y2="82.1286" gradientUnits="userSpaceOnUse">
<stop stop-color="#FFD166"/>
<stop offset="0.87" stop-color="#FFECC2"/>
</linearGradient>
<linearGradient id="paint32_linear_1762_35875" x1="34.6717" y1="75.3082" x2="52.6199" y2="73.1062" gradientUnits="userSpaceOnUse">
<stop stop-color="#FFDAE2"/>
<stop offset="1" stop-color="#FF869F"/>
</linearGradient>
<linearGradient id="paint33_linear_1762_35875" x1="27.2492" y1="51.4714" x2="30.3221" y2="70.3769" gradientUnits="userSpaceOnUse">
<stop stop-color="#FFD267"/>
<stop offset="0.89" stop-color="#FFEDC2"/>
</linearGradient>
<linearGradient id="paint34_linear_1762_35875" x1="5.10098" y1="80.0418" x2="23.0691" y2="77.8373" gradientUnits="userSpaceOnUse">
<stop stop-color="#FF839D"/>
<stop offset="0.86" stop-color="#FECDD8"/>
</linearGradient>
</defs>
</svg>
