<svg xmlns="http://www.w3.org/2000/svg" width="300" height="280" fill="none"><circle cx="149.5" cy="149.5" r="107.5" fill="url(#a)"/><path stroke="url(#b)" stroke-dasharray="5 10" stroke-linecap="round" stroke-width="4" d="M191.454 35.964c-4.741 1.322-15.285 7.316-19.536 20.708-4.252 13.393-.699 20.516 1.609 22.404 1.658 1.74 6.256 4.076 11.39-.506 1.489-2.056 3.353-7.137-1.103-11.013-4.456-3.876-10.499-1.173-12.964.663-4.677 4.07-13.558 16.932-11.666 35.811 1.891 18.879 18.456 34.063 26.502 39.295 3.771 2.218 13.765 6.693 23.57 6.855"/><mask id="d" width="215" height="216" x="42" y="41" maskUnits="userSpaceOnUse" style="mask-type:alpha"><circle cx="149.5" cy="149.5" r="107.5" fill="url(#c)"/></mask><g mask="url(#d)"><mask id="e" width="162" height="49" x="49" y="208" maskUnits="userSpaceOnUse" style="mask-type:alpha"><path fill="#32D5BA" d="m49 257 28.512-40.833c3.097-4.434 8.836-7.167 15.05-7.167h74.877c6.213 0 11.953 2.733 15.049 7.167L211 257H49Z"/></mask><g mask="url(#e)"><path fill="url(#f)" d="M218.04 209.343H54.15c-3.396 0-6.15 1.075-6.15 2.402v42.815c0 1.326 2.754 2.402 6.15 2.402h163.89c3.397 0 6.15-1.076 6.15-2.402v-42.815c0-1.327-2.753-2.402-6.15-2.402Z"/><path fill="url(#g)" d="m173.474 204.877-41.641 35.685a4 4 0 0 0-.224 5.867l14.552 14.539a4 4 0 0 1 1.173 2.775l.046 3.374a4 4 0 0 0 4.055 3.944l24.586-.339c.6-.008 1.19-.151 1.727-.418l45.243-22.524c2.612-1.301 2.998-4.87.723-6.698l-45.131-36.285a4 4 0 0 0-5.109.08Z"/><path fill="#FFD368" d="M138.9 260.667c2.151 1.804 1.822 5.205-.635 6.564L72.86 303.403a4 4 0 0 1-5.796-2.453l-16.475-60.683c-.774-2.853 1.707-5.531 4.61-4.977l68.183 13.02c.67.128 1.297.426 1.82.864l13.698 11.493Z" opacity=".43"/><path fill="#B0C5FF" d="M122.952 206.452a4.001 4.001 0 0 0-2.286-1.135L89.156 201H58.95c-3.287 0-5.17 3.745-3.212 6.384l18.806 25.332a4.006 4.006 0 0 0 2.534 1.558l42.981 7.392a4.038 4.038 0 0 0 3.394-.992c2.838-2.574 9.257-8.322 14.045-12.056 2.138-1.667 2.54-5.08.622-6.997l-15.169-15.169Z" opacity=".6"/><path fill="#FF87A1" d="M127.337 202.201a3.997 3.997 0 0 1-1.119-2.614l-1.303-31.603 2.864-30.069c.312-3.272 4.218-4.792 6.66-2.592l23.434 21.123a4 4 0 0 1 1.311 2.67l3.358 44.47c.049.645-.047 1.296-.367 1.857-2.215 3.886-8.214 8.846-12.278 12.874-1.834 1.818-5.038 2.027-6.832.169l-15.728-16.285Z" opacity=".6"/><path fill="url(#h)" d="m67 211.832 37.907 18.159c1.966.941 4.248-.462 4.296-2.641l.399-18.35H70.567c-1.97 0-3.567.895-3.567 1.999v.833Z"/></g><path stroke="url(#i)" stroke-dasharray="5 10" stroke-linecap="round" stroke-width="4" d="M52.734 134.617c3.863 2.076 11.881 9.387 13.045 22.017 1.163 12.631-3.262 18.232-5.62 19.454-1.766 1.218-6.196 2.396-9.786-2.632-.905-2.099-1.564-6.939 3.033-9.503 4.597-2.564 9.33.981 11.122 3.073 3.29 4.489 8.57 17.539 3.37 33.83-5.2 16.291-22.434 26.506-30.4 29.578-3.69 1.232-13.203 3.262-21.74 1.523"/><path fill="url(#j)" d="M112.674 85h16.093c12.094 0 24.157 1.21 36.011 3.612a181.306 181.306 0 0 0 47.215 3.266l6.741-.418a4.653 4.653 0 0 1 4.94 4.644v73.252a4.728 4.728 0 0 1-4.437 4.72l-7.244.449a181.302 181.302 0 0 1-47.215-3.266 181.323 181.323 0 0 0-36.011-3.612h-16.093V85Z"/><path fill="#32D5BA" fill-rule="evenodd" d="M200.7 130.69c-5.151 8.991-15.212 15.673-22.471 14.924-2.733-.282-4.679-1.576-5.768-3.561a37.57 37.57 0 0 0 5.205-4.628c.421-.451.384-.969-.083-1.157-.438-.177-1.099 0-1.527.394-5.372 5.785-12.523 9.522-18.049 8.952-2.809-.289-4.786-1.648-5.857-3.727a37.554 37.554 0 0 0 4.98-4.462c.422-.451.384-.969-.082-1.157-.467-.188-1.187.024-1.608.475a34.552 34.552 0 0 1-3.891 3.575l-.001-.003c-4.623 3.628-9.834 5.738-14.084 5.299-7.259-.748-8.967-8.643-3.815-17.633 5.151-8.991 15.212-15.672 22.471-14.924 3.465.357 5.665 2.343 6.458 5.3 4.623-3.629 9.834-5.738 14.084-5.3 3.385.349 5.563 2.252 6.401 5.095 4.558-3.503 9.652-5.525 13.822-5.095 7.259.748 8.967 8.643 3.815 17.633Z" clip-rule="evenodd"/></g><path fill="url(#k)" d="M227.979 28.524c-4.623-.233-9.263-.19-14.753-.521a2.289 2.289 0 0 1-1.624-.673 2.308 2.308 0 0 1-.671-1.624 2.316 2.316 0 0 1 .672-1.624 2.31 2.31 0 0 1 1.624-.671c4.963-.068 10.086.24 15.027.538h.001a2.277 2.277 0 0 1 1.575.769c.406.452.611 1.05.574 1.656a2.278 2.278 0 0 1-.768 1.576 2.28 2.28 0 0 1-1.657.574Z"/><path fill="url(#l)" d="M205.597 18.727a2.38 2.38 0 0 1-.879.174 2.226 2.226 0 0 1-.875-.156 2.198 2.198 0 0 1-.748-.485 2.252 2.252 0 0 1-.671-1.61c-.065-4.32-.064-8.91.212-13.486a2.273 2.273 0 0 1 .771-1.575 2.267 2.267 0 0 1 1.654-.574 2.266 2.266 0 0 1 1.573.768c.407.453.613 1.05.577 1.657-.265 4.392-.263 8.938-.242 13.163a2.185 2.185 0 0 1-.641 1.622 2.18 2.18 0 0 1-.731.502Z"/><path fill="url(#m)" d="M196.702 26.834a300.636 300.636 0 0 0-14.753-.522 2.382 2.382 0 0 1-1.566-.741 2.43 2.43 0 0 1-.681-1.598c.01-.302.07-.597.195-.872.117-.28.29-.526.512-.735.213-.209.473-.373.755-.482.282-.11.578-.164.878-.158 5.562-.032 9.77.222 14.986.536a2.324 2.324 0 0 1 1.571.795c.407.464.612 1.066.576 1.676a2.303 2.303 0 0 1-.236.87c-.134.27-.323.512-.552.708a2.37 2.37 0 0 1-.786.431c-.298.09-.6.121-.899.091Z"/><path fill="url(#n)" d="M201.701 46.237c-.057-4.32-.056-8.91.219-13.486.045-.609.33-1.178.797-1.578a2.332 2.332 0 0 1 1.67-.569 2.267 2.267 0 0 1 1.573.769c.407.453.613 1.05.577 1.656-.265 4.392-.263 8.938-.242 13.163a2.31 2.31 0 0 1-.658 1.633 2.3 2.3 0 0 1-3.249.03 2.298 2.298 0 0 1-.687-1.618Z"/><path fill="url(#o)" d="M33.5 145.549c.408-4.663.539-9.353 1.078-14.888.02-.615.287-1.195.74-1.616a2.335 2.335 0 0 1 1.666-.618 2.342 2.342 0 0 1 1.616.74c.417.451.638 1.051.617 1.666-.116 5.017-.619 10.183-1.104 15.164v.002a2.303 2.303 0 0 1-.835 1.563 2.3 2.3 0 0 1-1.696.518 2.303 2.303 0 0 1-1.563-.835 2.305 2.305 0 0 1-.518-1.696Z"/><path fill="url(#p)" d="M44.235 123.297a2.398 2.398 0 0 1-.142-.894 2.257 2.257 0 0 1 .708-1.616 2.273 2.273 0 0 1 1.651-.618c4.368.095 9.008.268 13.62.717.611.059 1.176.36 1.563.838.393.47.578 1.081.519 1.693a2.292 2.292 0 0 1-.835 1.561 2.303 2.303 0 0 1-1.696.521c-4.428-.432-9.022-.6-13.292-.736a2.315 2.315 0 0 1-.882-.187 2.19 2.19 0 0 1-.733-.521 2.195 2.195 0 0 1-.48-.758Z"/><path fill="url(#q)" d="M36.376 114.007c.498-5.116.859-10.253 1.077-14.889a2.41 2.41 0 0 1 .808-1.555 2.456 2.456 0 0 1 1.64-.627c.304.02.6.092.874.229.279.128.52.313.723.544a2.315 2.315 0 0 1 .585 1.674c-.174 5.622-.587 9.865-1.1 15.124a2.35 2.35 0 0 1-.861 1.558c-.485.393-1.1.579-1.715.519-.304-.03-.601-.126-.87-.271a2.282 2.282 0 0 1-.696-.584 2.4 2.4 0 0 1-.407-.81 2.353 2.353 0 0 1-.058-.912Z"/><path fill="url(#r)" d="M16.582 118.335c4.367.103 9.007.276 13.62.725a2.328 2.328 0 0 1 1.564.863 2.36 2.36 0 0 1 .513 1.71 2.294 2.294 0 0 1-.835 1.561 2.298 2.298 0 0 1-1.696.52c-4.428-.431-9.021-.599-13.292-.735a2.324 2.324 0 0 1 .126-4.644Z"/><g filter="url(#s)"><rect width="10" height="150" x="103" y="81" fill="url(#t)" rx="5"/></g><defs><linearGradient id="b" x1="165.675" x2="197.788" y1="115.641" y2="55.975" gradientUnits="userSpaceOnUse"><stop stop-color="#FFB1C1"/><stop offset="1" stop-color="#FFE4A2"/></linearGradient><linearGradient id="f" x1="136.095" x2="136.095" y1="209.343" y2="379.5" gradientUnits="userSpaceOnUse"><stop stop-color="#fff"/><stop offset="1" stop-color="#E0EAFF"/></linearGradient><linearGradient id="g" x1="116.5" x2="215" y1="246" y2="230.5" gradientUnits="userSpaceOnUse"><stop stop-color="#EEF4FF"/><stop offset="1" stop-color="#91AFFF"/></linearGradient><linearGradient id="h" x1="68.674" x2="109.102" y1="209" y2="232" gradientUnits="userSpaceOnUse"><stop stop-color="#A4BCFD"/><stop offset="1" stop-color="#8A8A8A"/></linearGradient><linearGradient id="i" x1="60.077" x2="42.958" y1="209.852" y2="151.202" gradientUnits="userSpaceOnUse"><stop stop-color="#FFB1C1"/><stop offset="1" stop-color="#FFE4A2"/></linearGradient><linearGradient id="j" x1="117.313" x2="221.588" y1="119.6" y2="183.349" gradientUnits="userSpaceOnUse"><stop stop-color="#D8E4FF"/><stop offset=".393" stop-color="#EBF1FF"/><stop offset=".662" stop-color="#EEF4FF"/><stop offset=".821" stop-color="#E6EEFF"/><stop offset="1" stop-color="#E2ECFF"/></linearGradient><linearGradient id="k" x1="230.022" x2="209.917" y1="25.807" y2="25.426" gradientUnits="userSpaceOnUse"><stop stop-color="#FFD166"/><stop offset=".87" stop-color="#FFECC2"/></linearGradient><linearGradient id="l" x1="204.264" x2="205.339" y1="18.882" y2="1.032" gradientUnits="userSpaceOnUse"><stop stop-color="#FFDAE2"/><stop offset="1" stop-color="#FF869F"/></linearGradient><linearGradient id="m" x1="179.751" x2="198.688" y1="21.828" y2="22.228" gradientUnits="userSpaceOnUse"><stop stop-color="#FFD267"/><stop offset=".89" stop-color="#FFEDC2"/></linearGradient><linearGradient id="n" x1="203.567" x2="204.643" y1="48.49" y2="30.62" gradientUnits="userSpaceOnUse"><stop stop-color="#FF839D"/><stop offset=".86" stop-color="#FECDD8"/></linearGradient><linearGradient id="o" x1="36.17" x2="37.305" y1="147.716" y2="127.413" gradientUnits="userSpaceOnUse"><stop stop-color="#FFD166"/><stop offset=".87" stop-color="#FFECC2"/></linearGradient><linearGradient id="p" x1="44.129" x2="62.127" y1="121.945" y2="123.698" gradientUnits="userSpaceOnUse"><stop stop-color="#FFDAE2"/><stop offset="1" stop-color="#FF869F"/></linearGradient><linearGradient id="q" x1="42.066" x2="40.955" y1="97.065" y2="116.186" gradientUnits="userSpaceOnUse"><stop stop-color="#FFD267"/><stop offset=".89" stop-color="#FFEDC2"/></linearGradient><linearGradient id="r" x1="14.236" x2="32.254" y1="120.137" y2="121.891" gradientUnits="userSpaceOnUse"><stop stop-color="#FF839D"/><stop offset=".86" stop-color="#FECDD8"/></linearGradient><linearGradient id="t" x1="108" x2="108" y1="81" y2="231" gradientUnits="userSpaceOnUse"><stop stop-color="#9F9F9F"/><stop offset=".979" stop-color="#BABABA"/></linearGradient><radialGradient id="a" cx="0" cy="0" r="1" gradientTransform="rotate(90 0 149.5) scale(107.5)" gradientUnits="userSpaceOnUse"><stop stop-color="#fff"/><stop offset="1" stop-color="#F5F8FF"/></radialGradient><radialGradient id="c" cx="0" cy="0" r="1" gradientTransform="rotate(-112.896 128.716 32.342) scale(111.809)" gradientUnits="userSpaceOnUse"><stop stop-color="#fff"/><stop offset="1" stop-color="#EEF4FF"/></radialGradient><filter id="s" width="10" height="150" x="103" y="81" color-interpolation-filters="sRGB" filterUnits="userSpaceOnUse"><feFlood flood-opacity="0" result="BackgroundImageFix"/><feBlend in="SourceGraphic" in2="BackgroundImageFix" result="shape"/><feColorMatrix in="SourceAlpha" result="hardAlpha" values="0 0 0 0 0 0 0 0 0 0 0 0 0 0 0 0 0 0 127 0"/><feOffset dx="3"/><feComposite in2="hardAlpha" k2="-1" k3="1" operator="arithmetic"/><feColorMatrix values="0 0 0 0 1 0 0 0 0 1 0 0 0 0 1 0 0 0 0.25 0"/><feBlend in2="shape" result="effect1_innerShadow_1762_35960"/></filter></defs></svg>