<svg xmlns="http://www.w3.org/2000/svg" width="260" height="240" fill="none"><circle cx="128.573" cy="128.143" r="92.143" fill="#F5F8FF"/><mask id="b" width="186" height="186" x="36" y="36" maskUnits="userSpaceOnUse" style="mask-type:alpha"><circle cx="129.001" cy="128.571" r="92.571" fill="url(#a)"/></mask><g mask="url(#b)"><path fill="#CFDDFA" d="M57.709 115.887h-2.041v53.371s19.41 0 34.214 6.665c5.5 2.477-5.762-11.604-8.06-14.434a3.862 3.862 0 0 1-.623-1.086l-5.877-15.67a3.83 3.83 0 0 1-.243-1.344v-11.994c-1.004-8.834-8.479-15.508-17.37-15.508Z"/><path fill="url(#c)" d="M47.59 113.773a4.23 4.23 0 1 1 8.459 0v92.341a4.229 4.229 0 1 1-8.46 0v-92.341Z"/></g><mask id="d" width="121" height="121" x="69" y="68" maskUnits="userSpaceOnUse" style="mask-type:alpha"><circle cx="129.002" cy="128.571" r="60" fill="#D9D9D9"/></mask><g mask="url(#d)"><path fill="url(#e)" d="M88.186 86.385H69.002v74.252h19.184a95.072 95.072 0 0 1 28.092 4.245 95.076 95.076 0 0 0 28.092 4.245h15.522a2.267 2.267 0 0 0 2.267-2.267V97.141a2.267 2.267 0 0 0-2.267-2.267H144.37a95.082 95.082 0 0 1-28.092-4.245 95.075 95.075 0 0 0-28.092-4.245Z"/><path fill="url(#f)" fill-rule="evenodd" d="M101.449 87.314a95.06 95.06 0 0 0-13.263-.93H69.002v74.253h19.184c.883 0 1.766.013 2.649.037a50.697 50.697 0 0 1-11.054-31.679c0-17.235 8.564-32.47 21.668-41.68Z" clip-rule="evenodd" opacity=".6"/><path fill="url(#g)" fill-rule="evenodd" d="M142.178 129.916c-4.105 7.164-12.123 12.489-17.907 11.892-2.178-.224-3.729-1.256-4.597-2.839a29.903 29.903 0 0 0 4.147-3.687c.335-.359.306-.772-.066-.922-.351-.141-.88.001-1.221.318-4.281 4.608-9.977 7.584-14.38 7.131-2.238-.231-3.814-1.314-4.667-2.97a29.967 29.967 0 0 0 3.97-3.557c.336-.359.307-.772-.066-.922-.366-.147-.927.014-1.264.362a27.317 27.317 0 0 1-3.119 2.867v-.001c-3.684 2.89-7.835 4.57-11.221 4.221-5.785-.597-7.146-6.888-3.04-14.052 4.105-7.165 12.122-12.489 17.906-11.893 2.761.285 4.514 1.866 5.146 4.221 3.684-2.89 7.835-4.57 11.221-4.221 2.698.278 4.434 1.795 5.102 4.061 3.632-2.792 7.692-4.404 11.016-4.062 5.784.597 7.145 6.888 3.04 14.053Z" clip-rule="evenodd"/></g><path fill="url(#h)" d="M217.002 101.011c-5.712 2.632-12.476.136-15.108-5.575-2.633-5.712-.137-12.476 5.575-15.108l32.279-14.878c5.712-2.632 12.476-.136 15.108 5.575 2.633 5.712.137 12.476-5.575 15.108l-32.279 14.878Z"/><path fill="url(#i)" d="M192.926 106.804a6.236 6.236 0 0 1-5.544-11.172l15.632-7.756a6.236 6.236 0 0 1 5.543 11.172l-15.631 7.756Z"/><path stroke="#32D5BA" stroke-width="6.015" d="M152.208 65.261c34.763 12.829 52.519 51.545 39.623 86.492s-51.545 52.849-86.308 40.021c-34.763-12.828-52.518-51.544-39.622-86.492 12.896-34.947 51.544-52.849 86.307-40.02Z" opacity=".5"/><g filter="url(#j)"><path stroke="url(#k)" stroke-width="12" d="M151.825 68.44c33.19 12.524 49.943 49.582 37.419 82.772-12.524 33.19-49.582 49.943-82.772 37.419-33.19-12.524-49.943-49.583-37.419-82.772 12.524-33.19 49.582-49.943 82.772-37.42Z"/></g><path fill="url(#l)" d="M56.142 78C46.675 78 39 70.325 39 60.857s7.676-17.143 17.143-17.143c9.468 0 17.143 7.675 17.143 17.143 0 2.742-.644 5.334-1.789 7.633-.304.61-.405 1.309-.229 1.968l1.021 3.816c.444 1.657-1.072 3.172-2.729 2.73l-3.816-1.022c-.659-.176-1.357-.075-1.968.23A17.072 17.072 0 0 1 56.142 78Z"/><path fill="#fff" d="M51.073 64.498c.024-.094.07-.153.142-.177.07-.047.094-.082.07-.106h-1.309a1.13 1.13 0 0 1-.779-.283 1.13 1.13 0 0 1-.283-.779c0-.33.094-.59.283-.778a1.06 1.06 0 0 1 .779-.319H51.568c.118 0 .19-.012.213-.035.047-.047.118-.2.212-.46l.885-2.478c.07-.212.106-.33.106-.354h-1.557c-.708 0-1.062-.33-1.062-.99 0-.33.094-.614.283-.85.213-.236.472-.354.779-.354h1.663c.33 0 .531-.023.602-.07.07-.072.153-.237.248-.496l.566-1.699c.189-.59.59-.885 1.203-.885.354 0 .637.142.85.425.236.26.295.519.177.779l-.531 1.521c-.095.26-.13.401-.106.425h2.264c.26 0 .402-.023.425-.07.024-.048.083-.213.177-.496l.567-1.699c.188-.59.601-.885 1.238-.885.307 0 .567.13.779.39.212.236.271.495.177.778l-.496 1.593c-.094.26-.141.377-.141.354 0 .023.106.035.318.035h1.416c.33 0 .602.106.814.319.212.212.319.471.319.778 0 .307-.118.567-.354.779-.213.212-.484.318-.814.318h-1.84c-.237 0-.367.036-.39.107-.024.047-.083.2-.177.46l-.814 2.513c-.047.235-.083.33-.106.283-.047-.024.047-.036.283-.036h1.663c.33 0 .59.095.779.283a.947.947 0 0 1 .319.744c0 .306-.119.578-.354.814a1.06 1.06 0 0 1-.78.318h-2.193c-.19 0-.295.012-.319.035-.047.024-.106.177-.177.46a7.14 7.14 0 0 1-.248.815c-.094.33-.188.625-.283.884-.189.59-.601.885-1.238.885-.378 0-.661-.13-.85-.39-.189-.282-.236-.6-.141-.955.047-.118.106-.33.177-.637.07-.306.165-.578.283-.814.07-.118.141-.212.212-.283H54.01c-.212 0-.353.024-.424.07-.047.025-.106.154-.177.39l-.496 1.77a1.34 1.34 0 0 1-.495.602 1.276 1.276 0 0 1-.743.247c-.401 0-.708-.13-.92-.39-.19-.282-.236-.6-.142-.955l.46-1.45Zm3.291-2.69a.486.486 0 0 1-.106.248l-.035.071.07-.035a.607.607 0 0 1 .248-.036h2.195c.212 0 .33-.012.354-.035.023 0 .07-.13.141-.39l.814-2.441.142-.46H55.85c-.212 0-.342.011-.39.035-.07.023-.176.224-.318.602l-.779 2.442Z"/><path fill="url(#m)" d="M197.575 172.286c11.362 0 20.572 9.21 20.572 20.571s-9.21 20.571-20.572 20.571c-11.361 0-20.571-9.21-20.571-20.571 0-3.291.773-6.401 2.146-9.159.366-.733.487-1.571.275-2.362l-1.225-4.579c-.532-1.988 1.287-3.807 3.275-3.275l4.579 1.225c.791.212 1.629.09 2.362-.275a20.484 20.484 0 0 1 9.159-2.146Z"/><path fill="#fff" d="M189.441 198.832c.033-.136.1-.221.199-.254.1-.068.133-.119.1-.153H187.898c-.432 0-.797-.136-1.095-.407-.266-.305-.399-.678-.399-1.118 0-.475.133-.848.399-1.119a1.472 1.472 0 0 1 1.095-.458H190.138c.166 0 .266-.017.299-.051.066-.067.166-.288.299-.661l1.244-3.559c.1-.305.15-.475.15-.509h-2.191c-.996 0-1.493-.474-1.493-1.423 0-.475.132-.882.398-1.221.299-.339.664-.508 1.095-.508h2.34c.465 0 .747-.034.846-.102.1-.102.216-.339.349-.712l.797-2.441c.265-.847.829-1.271 1.692-1.271.498 0 .896.204 1.195.61.332.373.415.746.249 1.119l-.747 2.187c-.132.373-.182.576-.149.61h3.186c.365 0 .564-.034.598-.102.033-.068.116-.305.249-.712l.796-2.441c.266-.847.847-1.271 1.743-1.271.431 0 .796.187 1.095.56.299.339.382.711.249 1.118l-.697 2.288c-.133.373-.199.543-.199.509 0 .034.149.051.448.051h1.991c.465 0 .847.152 1.145.457.299.306.448.678.448 1.119 0 .441-.165.814-.497 1.119-.299.305-.681.457-1.145.457h-2.589c-.332 0-.515.051-.548.153-.033.068-.116.288-.249.661l-1.145 3.61c-.066.339-.116.475-.149.407-.067-.034.066-.051.398-.051h2.34c.465 0 .83.136 1.095.407.299.271.448.627.448 1.068 0 .441-.166.83-.498 1.169a1.472 1.472 0 0 1-1.095.458h-3.087c-.265 0-.415.017-.448.051-.066.034-.149.254-.249.661-.066.305-.182.695-.348 1.169-.133.475-.266.899-.398 1.272-.266.847-.847 1.271-1.743 1.271-.531 0-.929-.187-1.195-.559-.265-.407-.332-.865-.199-1.373.066-.17.149-.475.249-.916.099-.44.232-.83.398-1.169.1-.17.199-.305.299-.407h-3.634c-.299 0-.498.034-.598.102-.066.034-.149.22-.249.559l-.697 2.543a1.916 1.916 0 0 1-.697.864c-.332.237-.68.356-1.045.356-.565 0-.996-.187-1.295-.559-.265-.407-.332-.865-.199-1.373l.647-2.085Zm4.63-3.865c-.033.17-.083.288-.149.356l-.05.102.1-.051c.066-.034.182-.051.348-.051h3.087c.299 0 .465-.017.498-.051.033 0 .1-.186.199-.559l1.145-3.509.199-.661h-3.286c-.298 0-.481.017-.547.051-.1.034-.249.322-.448.865l-1.096 3.508Z"/><defs><linearGradient id="c" x1="51.819" x2="51.819" y1="109.543" y2="267.994" gradientUnits="userSpaceOnUse"><stop stop-color="#9E9E9E"/><stop offset="1" stop-color="#9E9E9E" stop-opacity="0"/></linearGradient><linearGradient id="e" x1="72.895" x2="162.442" y1="116.716" y2="169.127" gradientUnits="userSpaceOnUse"><stop stop-color="#CCDBFF"/><stop offset=".47" stop-color="#EDF2FF"/><stop offset=".725" stop-color="#EEF4FF"/><stop offset="1" stop-color="#D9E6FF"/></linearGradient><linearGradient id="f" x1="13.6" x2="106.738" y1="84.371" y2="132.884" gradientUnits="userSpaceOnUse"><stop stop-color="#616161"/><stop offset="1" stop-color="#616161" stop-opacity="0"/></linearGradient><linearGradient id="g" x1="88.8" x2="144.805" y1="128.56" y2="128.56" gradientUnits="userSpaceOnUse"><stop stop-color="#32D5BA"/><stop offset=".408" stop-color="#32D5BA" stop-opacity=".8"/><stop offset="1" stop-color="#32D5BA"/></linearGradient><linearGradient id="h" x1="214.839" x2="224.226" y1="76.061" y2="97.323" gradientUnits="userSpaceOnUse"><stop stop-color="#616161" stop-opacity=".6"/><stop stop-color="#616161" stop-opacity=".5"/><stop offset=".392" stop-color="#616161"/></linearGradient><linearGradient id="i" x1="202.974" x2="197.179" y1="101.883" y2="90.849" gradientUnits="userSpaceOnUse"><stop stop-color="#BDBDBD"/><stop offset=".779" stop-color="#E0E0E0"/><stop offset="1" stop-color="#BDBDBD"/></linearGradient><linearGradient id="k" x1="70.449" x2="193.158" y1="163.46" y2="99.383" gradientUnits="userSpaceOnUse"><stop stop-color="#32D5BA"/><stop offset="1" stop-color="#A1ECE0"/></linearGradient><linearGradient id="l" x1="71.663" x2="46.644" y1="76.61" y2="48.811" gradientUnits="userSpaceOnUse"><stop stop-color="#FF86A0"/><stop offset="1" stop-color="#FFC5D3"/></linearGradient><linearGradient id="m" x1="178.95" x2="208.973" y1="173.954" y2="207.313" gradientUnits="userSpaceOnUse"><stop stop-color="#FFEBBC"/><stop offset="1" stop-color="#FFD468"/></linearGradient><radialGradient id="a" cx="0" cy="0" r="1" gradientTransform="rotate(-116.323 130.133 40.184) scale(136.907)" gradientUnits="userSpaceOnUse"><stop stop-color="#fff"/><stop offset="1" stop-color="#EEF4FF"/></radialGradient><filter id="j" width="140.501" height="140.501" x="58.898" y="58.285" color-interpolation-filters="sRGB" filterUnits="userSpaceOnUse"><feFlood flood-opacity="0" result="BackgroundImageFix"/><feBlend in="SourceGraphic" in2="BackgroundImageFix" result="shape"/><feColorMatrix in="SourceAlpha" result="hardAlpha" values="0 0 0 0 0 0 0 0 0 0 0 0 0 0 0 0 0 0 127 0"/><feOffset dx="1.714" dy="1.714"/><feComposite in2="hardAlpha" k2="-1" k3="1" operator="arithmetic"/><feColorMatrix values="0 0 0 0 1 0 0 0 0 1 0 0 0 0 1 0 0 0 0.4 0"/><feBlend in2="shape" result="effect1_innerShadow_1758_35850"/></filter></defs></svg>