<svg width="24" height="24" viewBox="0 0 24 24" fill="none" xmlns="http://www.w3.org/2000/svg">
<g clip-path="url(#clip0_1411_75788)">
<path d="M1.71436 6H22.2858" stroke="#9E9E9E" stroke-width="1.5" stroke-linecap="round" stroke-linejoin="round"/>
<path d="M4.28564 6H19.7142V21.4286C19.7142 21.8832 19.5335 22.3193 19.2121 22.6407C18.8907 22.9622 18.4546 23.1429 17.9999 23.1429H5.99993C5.54527 23.1429 5.10924 22.9622 4.78774 22.6407C4.46626 22.3193 4.28564 21.8832 4.28564 21.4286V6Z" stroke="#9E9E9E" stroke-width="1.5" stroke-linecap="round" stroke-linejoin="round"/>
<path d="M7.71436 6V5.14286C7.71436 4.00622 8.16588 2.91612 8.96961 2.1124C9.77333 1.30868 10.8634 0.857147 12.0001 0.857147C13.1367 0.857147 14.2268 1.30868 15.0305 2.1124C15.8343 2.91612 16.2858 4.00622 16.2858 5.14286V6" stroke="#9E9E9E" stroke-width="1.5" stroke-linecap="round" stroke-linejoin="round"/>
<path d="M9.42871 11.1454V18.0051" stroke="#9E9E9E" stroke-width="1.5" stroke-linecap="round" stroke-linejoin="round"/>
<path d="M14.5713 11.1454V18.0051" stroke="#9E9E9E" stroke-width="1.5" stroke-linecap="round" stroke-linejoin="round"/>
</g>
<defs>
<clipPath id="clip0_1411_75788">
<rect width="24" height="24" fill="white"/>
</clipPath>
</defs>
</svg>
