<svg xmlns="http://www.w3.org/2000/svg" width="20" height="21" viewBox="0 0 20 21" fill="none">
  <path d="M8.80063 2.375C8.70603 2.37499 8.63241 2.37498 8.56275 2.37919C7.67905 2.43271 6.90523 2.99046 6.57501 3.81188C6.5484 3.87807 6.52474 3.94886 6.49311 4.04376C6.42365 4.2307 6.26427 4.44332 6.04106 4.61321C6.01621 4.63213 5.99126 4.64999 5.96631 4.66681L7.58464 4.66667C7.60869 4.61703 7.63087 4.56656 7.65099 4.51535L7.65228 4.51244L7.65576 4.50418L7.65982 4.49408L7.66364 4.48411L7.66667 4.47582L7.66815 4.47164L7.67168 4.46145L7.67488 4.45203L7.67662 4.44681L7.6789 4.43986L7.68076 4.434L7.68225 4.42918C7.71461 4.33227 7.72518 4.30205 7.7348 4.27813C7.8849 3.90475 8.23664 3.65124 8.63832 3.62691C8.6652 3.62528 8.69815 3.625 8.81764 3.625H11.1824C11.3019 3.625 11.3348 3.62528 11.3617 3.62691C11.7634 3.65124 12.1151 3.90475 12.2652 4.27813C12.2747 4.3017 12.2848 4.33081 12.3176 4.42916L12.3191 4.43392L12.3209 4.43982L12.3232 4.44678L12.325 4.452L12.3282 4.46139L12.3317 4.47157L12.3332 4.47574L12.3362 4.48401L12.34 4.49392L12.344 4.50393L12.3474 4.51207L12.3488 4.51509C12.3689 4.5664 12.3911 4.61695 12.4152 4.66667L14.0334 4.66681C14.0085 4.65 13.9836 4.63215 13.9587 4.61324C13.7356 4.44338 13.5762 4.23077 13.5068 4.04379L13.5042 4.03623C13.4743 3.9465 13.4511 3.87662 13.425 3.81188C13.0948 2.99046 12.321 2.43271 11.4373 2.37919C11.3676 2.37498 11.294 2.37499 11.1994 2.375H8.80063Z" fill="#E0E0E0"/>
  <path fill-rule="evenodd" clip-rule="evenodd" d="M14.327 4.66675H5.67313C4.26698 4.66675 3.5639 4.66675 3.02731 4.94151C2.56043 5.18058 2.18058 5.56043 1.94151 6.02731C1.66675 6.5639 1.66675 7.26698 1.66675 8.67313C1.66675 9.0306 1.66675 9.20934 1.72789 9.36002C1.78127 9.49161 1.86741 9.60738 1.9781 9.69633C2.10487 9.79818 2.27607 9.84954 2.61847 9.95226L7.08341 11.2917V12.3023C7.08341 12.9403 7.46624 13.5285 8.07243 13.7748L8.53919 13.9644C9.47665 14.3453 10.5235 14.3453 11.461 13.9644L11.9277 13.7748C12.5339 13.5285 12.9167 12.9403 12.9167 12.3023V11.2917L17.3817 9.95226C17.7241 9.84954 17.8953 9.79818 18.0221 9.69633C18.1328 9.60738 18.2189 9.49161 18.2723 9.36002C18.3334 9.20934 18.3334 9.0306 18.3334 8.67313C18.3334 7.26698 18.3334 6.5639 18.0587 6.02731C17.8196 5.56043 17.4397 5.18058 16.9729 4.94151C16.4363 4.66675 15.7332 4.66675 14.327 4.66675ZM11.3334 10.5001H8.66675C8.48265 10.5001 8.33341 10.6517 8.33341 10.8387V12.3023C8.33341 12.4408 8.4164 12.5653 8.54295 12.6167L9.00971 12.8063C9.64547 13.0647 10.3547 13.0647 10.9905 12.8063L11.4572 12.6167C11.5838 12.5653 11.6667 12.4408 11.6667 12.3023V10.8387C11.6667 10.6517 11.5175 10.5001 11.3334 10.5001Z" fill="#616161"/>
  <path d="M2.5 9.9165C2.53705 9.92774 2.57643 9.93955 2.61838 9.95214L7.08333 11.2916V12.3022C7.08333 12.9402 7.46616 13.5283 8.07235 13.7746L8.53911 13.9643C9.47657 14.3452 10.5234 14.3452 11.4609 13.9643L11.9276 13.7746C12.5338 13.5283 12.9167 12.9402 12.9167 12.3022V11.2916L17.3816 9.95214C17.4236 9.93956 17.4629 9.92774 17.5 9.91652V10.7499C17.4992 13.8127 17.4709 16.9066 16.4016 17.857C15.3033 18.8333 13.5355 18.8333 9.99998 18.8333C6.46445 18.8333 4.69668 18.8333 3.59833 17.857C2.52907 16.9066 2.50075 13.8127 2.5 10.7499V9.9165Z" fill="#E0E0E0"/>
</svg>