<svg xmlns="http://www.w3.org/2000/svg" width="20" height="21" viewBox="0 0 20 21" fill="none">
  <path fill-rule="evenodd" clip-rule="evenodd" d="M8.6696 19.2338L8.89882 18.8466C9.26618 18.2259 9.44986 17.9156 9.74245 17.7425C10.035 17.5695 10.4167 17.5573 11.18 17.5328C11.8958 17.5099 12.3768 17.4475 12.7881 17.2771C13.6541 16.9184 14.3421 16.2304 14.7008 15.3645C14.9698 14.715 14.9698 13.8916 14.9698 12.2449V11.5381C14.9698 9.22433 14.9698 8.06745 14.449 7.21759C14.1576 6.74205 13.7578 6.34223 13.2822 6.05082C12.4324 5.53003 11.2755 5.53003 8.96177 5.53003H6.84129C4.52753 5.53003 3.37066 5.53003 2.52081 6.05082C2.04527 6.34223 1.64545 6.74205 1.35404 7.21759C0.833252 8.06745 0.833252 9.22433 0.833252 11.5381V12.2449C0.833252 13.8916 0.833252 14.715 1.10227 15.3645C1.46097 16.2304 2.14897 16.9184 3.01493 17.2771C3.42624 17.4475 3.90727 17.5099 4.623 17.5328C5.38632 17.5573 5.76798 17.5695 6.06057 17.7425C6.35316 17.9156 6.53685 18.2259 6.9042 18.8466L7.13342 19.2338C7.47494 19.8108 8.32809 19.8108 8.6696 19.2338ZM10.9939 12.5983C11.4819 12.5983 11.8774 12.2027 11.8774 11.7148C11.8774 11.2268 11.4819 10.8312 10.9939 10.8312C10.5059 10.8312 10.1104 11.2268 10.1104 11.7148C10.1104 12.2027 10.5059 12.5983 10.9939 12.5983ZM8.78506 11.7148C8.78506 12.2027 8.38949 12.5983 7.90153 12.5983C7.41356 12.5983 7.01799 12.2027 7.01799 11.7148C7.01799 11.2268 7.41356 10.8312 7.90153 10.8312C8.38949 10.8312 8.78506 11.2268 8.78506 11.7148ZM4.80916 12.5983C5.29712 12.5983 5.69269 12.2027 5.69269 11.7148C5.69269 11.2268 5.29712 10.8312 4.80916 10.8312C4.32119 10.8312 3.92562 11.2268 3.92562 11.7148C3.92562 12.2027 4.32119 12.5983 4.80916 12.5983Z" fill="#616161"/>
  <path d="M12.9051 1.33325C13.9608 1.33325 14.8004 1.33324 15.4737 1.39726C16.164 1.4629 16.7478 1.6005 17.2677 1.91914C17.8027 2.24698 18.2525 2.69678 18.5803 3.23176C18.899 3.75175 19.0366 4.33546 19.1022 5.02585C19.1662 5.69914 19.1662 6.53873 19.1662 7.59444V8.3155C19.1662 9.06683 19.1662 9.66449 19.1332 10.1491C19.0993 10.6449 19.0287 11.0706 18.8636 11.4693C18.4601 12.4435 17.6861 13.2175 16.7118 13.621C16.6875 13.6311 16.663 13.6409 16.6384 13.6503C16.5208 13.6952 16.42 13.7337 16.3316 13.7624H14.9565C14.97 13.3466 14.97 12.8513 14.97 12.2441V11.5373C14.97 9.22351 14.97 8.06663 14.4492 7.21678C14.1578 6.74124 13.7579 6.34142 13.2824 6.05001C12.4326 5.52922 11.2757 5.52922 8.96193 5.52922H6.84145C6.02027 5.52922 5.34482 5.52922 4.7771 5.5525V4.17717C4.80436 4.08271 4.8417 3.97443 4.88554 3.84733C4.9601 3.63118 5.05433 3.42674 5.17381 3.23176C5.50165 2.69678 5.95144 2.24698 6.48642 1.91914C7.00641 1.6005 7.59012 1.4629 8.28051 1.39726C8.95381 1.33324 9.79336 1.33325 10.8491 1.33325H12.9051Z" fill="#E0E0E0"/>
</svg>