<svg xmlns="http://www.w3.org/2000/svg" width="24" height="24" viewBox="0 0 24 24" fill="none">
  <path d="M16.2049 1.4151L16.2082 1.41179C16.417 1.20233 16.6655 1.03588 16.9397 0.922225C17.2138 0.808565 17.508 0.75 17.8052 0.75C18.1024 0.75 18.3966 0.808565 18.6708 0.922225C18.9449 1.03588 19.1935 1.20233 19.4022 1.4118L19.4044 1.41397L22.5818 4.57587L22.585 4.57909C22.7959 4.7864 22.9632 5.03311 23.0772 5.30481C23.1913 5.5765 23.25 5.86789 23.25 6.16212C23.25 6.45635 23.1913 6.74774 23.0772 7.01943C22.9632 7.29113 22.7959 7.53783 22.585 7.74514L22.585 7.74513L22.5807 7.74949L8.68422 21.637L9.21438 22.1675L8.68422 21.637C8.64811 21.6731 8.60182 21.6973 8.55158 21.7063L1.2616 23.0121C1.09163 23.0425 0.942709 22.8956 0.970866 22.7252L2.18593 15.3736C2.19451 15.3217 2.21924 15.2738 2.25661 15.2368L16.2049 1.4151Z" stroke="#9E9E9E" stroke-width="1.5"/>
</svg>