<svg xmlns="http://www.w3.org/2000/svg" width="16" height="16" viewBox="0 0 24 24" fill="none">
  <path d="M20.5 10C20.5 12.5819 19.1936 15.0647 17.5397 17.1641C15.892 19.2554 13.9457 20.9075 12.7683 21.8183C12.3098 22.1729 11.6902 22.1729 11.2317 21.8183C10.0543 20.9075 8.10798 19.2554 6.46032 17.1641C4.80635 15.0647 3.5 12.5819 3.5 10C3.5 7.74566 4.39553 5.58365 5.98959 3.98959C7.58365 2.39553 9.74566 1.5 12 1.5C14.2543 1.5 16.4163 2.39553 18.0104 3.98959C19.6045 5.58365 20.5 7.74566 20.5 10Z" stroke="#667085" stroke-linecap="round" stroke-linejoin="round"/>
  <path d="M12 13C13.6569 13 15 11.6569 15 10C15 8.34315 13.6569 7 12 7C10.3431 7 9 8.34315 9 10C9 11.6569 10.3431 13 12 13Z" stroke="#667085" stroke-linecap="round" stroke-linejoin="round"/>
</svg>