
<svg xmlns="http://www.w3.org/2000/svg" width="88" height="12" viewBox="0 0 88 12" fill="none">
  <path d="M78.7988 7.38585C78.7988 6.48865 78.9742 5.69292 79.3251 4.99866C79.6865 4.30441 80.1755 3.77036 80.7921 3.39653C81.4087 3.0227 82.0944 2.83578 82.8492 2.83578C83.4232 2.83578 83.9707 2.96395 84.4916 3.22029C85.0125 3.46595 85.4272 3.79706 85.7354 4.21362V0H87.9998V11.8558H85.7354V10.5421C85.459 10.98 85.071 11.3324 84.5714 11.5995C84.0717 11.8665 83.4923 12 82.8332 12C82.0891 12 81.4087 11.8077 80.7921 11.4232C80.1755 11.0387 79.6865 10.4993 79.3251 9.80507C78.9742 9.10013 78.7988 8.29373 78.7988 7.38585ZM85.7514 7.41789C85.7514 6.87316 85.6451 6.40855 85.4325 6.02403C85.2198 5.62884 84.9328 5.32977 84.5714 5.12684C84.2099 4.91322 83.8219 4.80641 83.4073 4.80641C82.9927 4.80641 82.61 4.90788 82.2592 5.11081C81.9083 5.31375 81.6213 5.61282 81.3981 6.00801C81.1855 6.39252 81.0791 6.8518 81.0791 7.38585C81.0791 7.91989 81.1855 8.38985 81.3981 8.79573C81.6213 9.19092 81.9083 9.49533 82.2592 9.70895C82.6206 9.92256 83.0033 10.0294 83.4073 10.0294C83.8219 10.0294 84.2099 9.9279 84.5714 9.72497C84.9328 9.51135 85.2198 9.21228 85.4325 8.82777C85.6451 8.43258 85.7514 7.96262 85.7514 7.41789Z" fill="#616161"/>
  <path d="M73.1269 12.0002C72.2764 12.0002 71.511 11.8132 70.8306 11.4394C70.1503 11.0549 69.6134 10.5155 69.2201 9.82125C68.8374 9.12699 68.646 8.32592 68.646 7.41805C68.646 6.51017 68.8427 5.7091 69.236 5.01484C69.64 4.32058 70.1875 3.78654 70.8785 3.41271C71.5695 3.02819 72.3402 2.83594 73.1907 2.83594C74.0411 2.83594 74.8119 3.02819 75.5029 3.41271C76.1939 3.78654 76.7361 4.32058 77.1294 5.01484C77.5334 5.7091 77.7354 6.51017 77.7354 7.41805C77.7354 8.32592 77.5281 9.12699 77.1135 9.82125C76.7095 10.5155 76.1567 11.0549 75.455 11.4394C74.764 11.8132 73.988 12.0002 73.1269 12.0002ZM73.1269 10.0455C73.5309 10.0455 73.9083 9.94942 74.2591 9.75716C74.6205 9.55423 74.9076 9.25516 75.1202 8.85997C75.3328 8.46478 75.4391 7.98413 75.4391 7.41805C75.4391 6.57426 75.2159 5.92806 74.7694 5.47946C74.3335 5.02018 73.7966 4.79054 73.1588 4.79054C72.5209 4.79054 71.9841 5.02018 71.5482 5.47946C71.123 5.92806 70.9104 6.57426 70.9104 7.41805C70.9104 8.26184 71.1177 8.91337 71.5323 9.37265C71.9575 9.82125 72.489 10.0455 73.1269 10.0455Z" fill="#616161"/>
  <path d="M62.9579 12.0002C62.1075 12.0002 61.3421 11.8132 60.6617 11.4394C59.9813 11.0549 59.4445 10.5155 59.0511 9.82125C58.6684 9.12699 58.4771 8.32592 58.4771 7.41805C58.4771 6.51017 58.6737 5.7091 59.0671 5.01484C59.471 4.32058 60.0185 3.78654 60.7095 3.41271C61.4005 3.02819 62.1713 2.83594 63.0217 2.83594C63.8722 2.83594 64.6429 3.02819 65.3339 3.41271C66.0249 3.78654 66.5671 4.32058 66.9605 5.01484C67.3644 5.7091 67.5664 6.51017 67.5664 7.41805C67.5664 8.32592 67.3591 9.12699 66.9445 9.82125C66.5405 10.5155 65.9877 11.0549 65.2861 11.4394C64.5951 11.8132 63.819 12.0002 62.9579 12.0002ZM62.9579 10.0455C63.3619 10.0455 63.7393 9.94942 64.0901 9.75716C64.4516 9.55423 64.7386 9.25516 64.9512 8.85997C65.1638 8.46478 65.2702 7.98413 65.2702 7.41805C65.2702 6.57426 65.0469 5.92806 64.6004 5.47946C64.1646 5.02018 63.6277 4.79054 62.9898 4.79054C62.352 4.79054 61.8151 5.02018 61.3793 5.47946C60.954 5.92806 60.7414 6.57426 60.7414 7.41805C60.7414 8.26184 60.9487 8.91337 61.3633 9.37265C61.7886 9.82125 62.3201 10.0455 62.9579 10.0455Z" fill="#616161"/>
  <path d="M53.2972 2.85156C54.3815 2.85156 55.2533 3.18801 55.9124 3.86091C56.5821 4.52312 56.917 5.45236 56.917 6.64862V11.8556H54.6845V6.95303C54.6845 6.25877 54.5091 5.73007 54.1583 5.36692C53.8075 4.99308 53.3291 4.80617 52.7231 4.80617C52.1172 4.80617 51.6335 4.99308 51.272 5.36692C50.9212 5.73007 50.7458 6.25877 50.7458 6.95303V11.8556H48.5133V6.95303C48.5133 6.25877 48.3379 5.73007 47.9871 5.36692C47.6363 4.99308 47.1579 4.80617 46.5519 4.80617C45.9353 4.80617 45.4463 4.99308 45.0849 5.36692C44.7341 5.73007 44.5586 6.25877 44.5586 6.95303V11.8556H42.3262V2.97973H44.5586V4.05316C44.8457 3.67933 45.2124 3.38561 45.6589 3.17199C46.1161 2.95837 46.6157 2.85156 47.1579 2.85156C47.8489 2.85156 48.4655 3.0011 49.0076 3.30016C49.5498 3.58855 49.9697 4.0051 50.2674 4.54983C50.5544 4.03714 50.969 3.62593 51.5112 3.31618C52.064 3.00644 52.6593 2.85156 53.2972 2.85156Z" fill="#616161"/>
  <path d="M40.1202 0V11.8558H37.8877V0H40.1202Z" fill="#616161"/>
  <path d="M26.5063 7.386C26.5063 6.48881 26.6818 5.69308 27.0326 4.99882C27.394 4.30456 27.8777 3.77052 28.4837 3.39669C29.1003 3.02285 29.786 2.83594 30.5407 2.83594C31.1999 2.83594 31.7739 2.96945 32.2629 3.23647C32.7626 3.50349 33.1613 3.83994 33.4589 4.24582V2.98013H35.7073V11.856H33.4589V10.5582C33.1719 10.9748 32.7732 11.3219 32.2629 11.5996C31.7633 11.8666 31.1839 12.0002 30.5248 12.0002C29.7806 12.0002 29.1003 11.8079 28.4837 11.4234C27.8777 11.0389 27.394 10.4995 27.0326 9.80523C26.6818 9.10029 26.5063 8.29388 26.5063 7.386ZM33.4589 7.41805C33.4589 6.87332 33.3526 6.4087 33.14 6.02419C32.9274 5.62899 32.6403 5.32993 32.2789 5.12699C31.9174 4.91337 31.5294 4.80656 31.1148 4.80656C30.7002 4.80656 30.3175 4.90803 29.9667 5.11097C29.6159 5.31391 29.3288 5.61297 29.1056 6.00817C28.893 6.39268 28.7867 6.85196 28.7867 7.386C28.7867 7.92005 28.893 8.39001 29.1056 8.79588C29.3288 9.19108 29.6159 9.49548 29.9667 9.7091C30.3281 9.92272 30.7108 10.0295 31.1148 10.0295C31.5294 10.0295 31.9174 9.92806 32.2789 9.72512C32.6403 9.5115 32.9274 9.21244 33.14 8.82793C33.3526 8.43273 33.4589 7.96277 33.4589 7.41805Z" fill="#616161"/>
  <path d="M16.9141 7.41805C16.9141 6.49949 17.1001 5.69842 17.4722 5.01484C17.8443 4.32058 18.3599 3.78654 19.019 3.41271C19.6781 3.02819 20.4329 2.83594 21.2833 2.83594C22.3783 2.83594 23.2819 3.11364 23.9942 3.66905C24.7171 4.21377 25.2008 4.9828 25.4453 5.97612H23.0374C22.9099 5.59161 22.6919 5.29255 22.3836 5.07893C22.086 4.85463 21.7139 4.74248 21.2674 4.74248C20.6295 4.74248 20.1246 4.97746 19.7525 5.44742C19.3804 5.9067 19.1944 6.56357 19.1944 7.41805C19.1944 8.26184 19.3804 8.91871 19.7525 9.38867C20.1246 9.84795 20.6295 10.0776 21.2674 10.0776C22.171 10.0776 22.761 9.67172 23.0374 8.85997H25.4453C25.2008 9.82125 24.7171 10.5849 23.9942 11.151C23.2713 11.7171 22.3677 12.0002 21.2833 12.0002C20.4329 12.0002 19.6781 11.8132 19.019 11.4394C18.3599 11.0549 17.8443 10.5209 17.4722 9.83727C17.1001 9.14301 16.9141 8.3366 16.9141 7.41805Z" fill="#616161"/>
  <path d="M11.2416 12.0002C10.3912 12.0002 9.62575 11.8132 8.94538 11.4394C8.265 11.0549 7.72815 10.5155 7.33481 9.82125C6.9521 9.12699 6.76074 8.32592 6.76074 7.41805C6.76074 6.51017 6.95741 5.7091 7.35075 5.01484C7.75472 4.32058 8.30221 3.78654 8.99322 3.41271C9.68422 3.02819 10.455 2.83594 11.3054 2.83594C12.1559 2.83594 12.9266 3.02819 13.6176 3.41271C14.3086 3.78654 14.8508 4.32058 15.2441 5.01484C15.6481 5.7091 15.8501 6.51017 15.8501 7.41805C15.8501 8.32592 15.6428 9.12699 15.2282 9.82125C14.8242 10.5155 14.2714 11.0549 13.5698 11.4394C12.8788 11.8132 12.1027 12.0002 11.2416 12.0002ZM11.2416 10.0455C11.6456 10.0455 12.023 9.94942 12.3738 9.75716C12.7353 9.55423 13.0223 9.25516 13.2349 8.85997C13.4475 8.46478 13.5538 7.98413 13.5538 7.41805C13.5538 6.57426 13.3306 5.92806 12.8841 5.47946C12.4482 5.02018 11.9114 4.79054 11.2735 4.79054C10.6357 4.79054 10.0988 5.02018 9.66296 5.47946C9.23773 5.92806 9.02511 6.57426 9.02511 7.41805C9.02511 8.26184 9.23241 8.91337 9.64701 9.37265C10.0722 9.82125 10.6038 10.0455 11.2416 10.0455Z" fill="#616161"/>
  <path d="M2.23247 10.0774H5.90011V11.8558H0V0.672852H2.23247V10.0774Z" fill="#616161"/>
</svg>