<svg xmlns="http://www.w3.org/2000/svg" width="14" height="15" viewBox="0 0 14 15" fill="none">
  <path d="M0.938841 0.777826C1.19384 0.521159 1.55051 0.354492 2.22551 0.262826C2.92051 0.168659 3.84051 0.166992 5.16051 0.166992H8.83884C10.1588 0.166992 11.0788 0.168659 11.7738 0.262826C12.4488 0.354492 12.8055 0.521159 13.0605 0.777826C13.3147 1.03449 13.4805 1.39449 13.5713 2.07533C13.6647 2.77533 13.6663 3.70449 13.6663 5.03533V13.5003H3.18801C2.28467 13.5003 1.96967 13.5053 1.72717 13.557C1.29967 13.6487 0.927175 13.8462 0.656341 14.1128C0.564674 14.2028 0.519675 14.247 0.413841 14.5337C0.363332 14.6553 0.33592 14.7853 0.333008 14.917V5.03533C0.333008 3.70449 0.334674 2.77616 0.428008 2.07533C0.518841 1.39533 0.684675 1.03449 0.938841 0.777826Z" fill="#E0E0E0"/>
</svg>